<svg xmlns="http://www.w3.org/2000/svg" width="110.173" height="118.045"><path d="M59.561 72.106a8.527 8.527 0 0 1-2.5-1v3.345a20.3 20.3 0 0 1 2.5-2.341Zm-6.434-16.014v-3.345a8.527 8.527 0 0 1-2.5 1 18.9 18.9 0 0 1 2.5 2.341Zm3.934 0a18.9 18.9 0 0 1 2.5-2.341 8.527 8.527 0 0 1-2.5-1Zm-3.934 15.011a8.527 8.527 0 0 1-2.5 1 20.3 20.3 0 0 1 2.5 2.341Zm7.864-43.894c0-3.777-3.6-7.5-5.9-9.345-1.967 1.594-5.9 5.292-5.9 9.345 0 5.332 2.7 9.837 5.9 9.837s5.9-4.505 5.9-9.837ZM47.499 37.912c-3.325-2.322-8.6-1.22-11.037-.531.177 2.538.944 7.87 4.269 10.191a13.215 13.215 0 0 0 7.063 2.558 5.147 5.147 0 0 0 4.368-1.751 5.066 5.066 0 0 0 .138-4.682 13.17 13.17 0 0 0-4.8-5.784Zm15.189 0a13.17 13.17 0 0 0-4.8 5.784 5.066 5.066 0 0 0 .138 4.682 5.147 5.147 0 0 0 4.368 1.751 13.215 13.215 0 0 0 7.063-2.558c3.109-2.164 4.073-7.24 4.289-10.191-2.44-.689-7.732-1.79-11.057.531ZM40.732 65.948a13.347 13.347 0 0 0 7.063 2.538 5.145 5.145 0 0 0 4.368-1.731 5.115 5.115 0 0 0 .138-4.7 13.17 13.17 0 0 0-4.8-5.784c-3.325-2.322-8.6-1.22-11.037-.512.177 2.518.944 7.85 4.269 10.191Zm17.293.807a5.145 5.145 0 0 0 4.368 1.731 13.347 13.347 0 0 0 7.063-2.538c3.325-2.341 4.092-7.673 4.269-10.191-2.44-.708-7.712-1.81-11.037.512a13.17 13.17 0 0 0-4.8 5.784 5.115 5.115 0 0 0 .138 4.7ZM40.732 84.304a13.022 13.022 0 0 0 7.063 2.538 5.09 5.09 0 0 0 4.367-1.727 5.115 5.115 0 0 0 .138-4.7 13.278 13.278 0 0 0-4.8-5.784c-3.109-2.164-8.2-1.338-11.037-.531.177 2.538.944 7.889 4.269 10.211Zm21.66 2.538a13.022 13.022 0 0 0 7.061-2.534c3.109-2.184 4.073-7.24 4.289-10.191-2.44-.689-7.732-1.81-11.057.512a13.278 13.278 0 0 0-4.8 5.784 4.275 4.275 0 0 0 4.505 6.433Z"/><path d="M3.941 59.023A51.2 51.2 0 0 1 53.503 7.911a5.9 5.9 0 0 0 5.525 3.889 1.936 1.936 0 0 0 .476-.059l15.74-3.93a1.967 1.967 0 0 0 0-3.817L59.503.059A1.936 1.936 0 0 0 59.028 0a5.89 5.89 0 0 0-5.552 3.976 55.074 55.074 0 0 0-33.009 97.891l2.475-3.057a50.98 50.98 0 0 1-19-39.787Zm26.522 44.841a51.636 51.636 0 0 1-3.785-2.3 1.968 1.968 0 0 0-2.192 3.27c1.324.885 2.7 1.721 4.084 2.483a1.946 1.946 0 0 0 .944.242 1.967 1.967 0 0 0 .948-3.691Zm59.318-87.645-2.483 3.061a51.153 51.153 0 0 1-30.613 90.861 5.9 5.9 0 0 0-5.526-3.9 1.936 1.936 0 0 0-.476.059l-15.74 3.934a1.967 1.967 0 0 0 0 3.817l15.739 3.935a1.936 1.936 0 0 0 .476.059 5.89 5.89 0 0 0 5.552-3.976 55.088 55.088 0 0 0 33.07-97.85Zm-10.058-2.038a51.636 51.636 0 0 1 3.785 2.3 1.968 1.968 0 1 0 2.194-3.266 55.906 55.906 0 0 0-4.084-2.483 1.967 1.967 0 1 0-1.893 3.449Z"/><path d="M53.126 88.534h3.935v13.772h-3.935Z"/></svg>