<svg xmlns="http://www.w3.org/2000/svg" width="26.338" height="31"><path d="M26.116 14.985c.807-4.383-.51-10.409-5.311-13.28A13.339 13.339 0 0 0 10.838.451 12.423 12.423 0 0 0 1.69 9.382a8.841 8.841 0 0 0-.3 2.709 9.092 9.092 0 0 0 .312 1.674 7.233 7.233 0 0 1 .309 2.147 5.412 5.412 0 0 1-1.144 2.556c-.574.865-1.07 1.612-.782 2.3a1.686 1.686 0 0 0 1.291.827.618.618 0 0 0 .094.01.484.484 0 0 1 .542.516c0 1.073.027 1.627.47 1.881a.946.946 0 0 0-.08.255.92.92 0 0 0 .291.814 1.569 1.569 0 0 0 .819.418l.063.014a1.321 1.321 0 0 1 .016.232 5.561 5.561 0 0 1-.041.575A1.966 1.966 0 0 0 5 28.81a3.4 3.4 0 0 0 1.02.124 16.178 16.178 0 0 0 4.592-.88 5.836 5.836 0 0 1 .754 2.431.516.516 0 0 0 .517.517H24.79a.513.513 0 0 0 .482-.357.528.528 0 0 0-.185-.582c-.534-.406-2.3-4.681-2.359-6.217.156-.354.365-.752.612-1.214a24.27 24.27 0 0 0 2.776-7.647Zm-4.421 8.807a18.8 18.8 0 0 0 2.083 6.174H12.353a7.4 7.4 0 0 0-.763-2.266 8.352 8.352 0 0 0 3.448-2.168.517.517 0 0 0-.821-.627c-1.462 1.913-7.544 3.365-8.9 2.921-.86-.281-.826-.611-.743-1.409a6.494 6.494 0 0 0 .046-.681c0-.87-.351-1.13-.879-1.252a.662.662 0 0 1-.278-.107 1.433 1.433 0 0 1 .341-.242.517.517 0 0 0-.228-.98c-.187 0-.394 0-.5-.014a7.975 7.975 0 0 1-.033-1.019 1.511 1.511 0 0 0-1.512-1.548c-.372-.078-.485-.179-.495-.2-.075-.179.423-.928.69-1.331a6.238 6.238 0 0 0 1.316-3.1 7.248 7.248 0 0 0-.213-1.916 5.148 5.148 0 0 1 1.948-1.074 1.6 1.6 0 0 1 .768.054.518.518 0 1 0 .274-1 2.606 2.606 0 0 0-1.256-.069 5.322 5.322 0 0 0-2 .994 6.138 6.138 0 0 1-.143-.915 7.646 7.646 0 0 1 .27-2.387 11.261 11.261 0 0 1 8.412-8.181 12.269 12.269 0 0 1 9.169 1.143c4.378 2.618 5.57 8.162 4.826 12.206a23.048 23.048 0 0 1-2.666 7.345c-.284.53-.529.987-.706 1.411a.5.5 0 0 0-.029.239Z"/><path d="M22.721 16.165a1.548 1.548 0 0 0-1.258-1.665l-.989-1.371a1.531 1.531 0 0 0 .138-.354l.958-.383a1.546 1.546 0 1 0 1.5-2.529l-.776-1.548a1.543 1.543 0 0 0-1.9-2.4l-.865-.718a1.544 1.544 0 0 0-2.565-1.606l-1.531-.383a1.54 1.54 0 0 0-2.963-.018l-2.046.409a1.542 1.542 0 0 0-2.466 1.82l-1 1.335a1.545 1.545 0 0 0-.088 3.022l.829 2.047a1.547 1.547 0 1 0 2.542 1.617h2.773a1.5 1.5 0 0 0 1.691 1.009l1.715 2.608a1.546 1.546 0 1 0 2.67 1.3l1.28-1.023a1.542 1.542 0 0 0 2.356-1.169Zm.007-5.309a.517.517 0 1 1-.473.722s0-.01 0-.014v-.005a.509.509 0 0 1-.038-.186.517.517 0 0 1 .511-.517Zm-2.055-3.721a.516.516 0 1 1 .506.621.511.511 0 0 1-.186-.038h-.014a.516.516 0 0 1-.306-.582Zm-.514 1.263-.955 2.386-1.673-1.339a1.542 1.542 0 0 0 .478-.735l2.046-.409c.03.035.068.066.104.097Zm-.55 4.147a.516.516 0 1 1-.5-.656.511.511 0 0 1 .186.038h.014a.516.516 0 0 1 .3.618Zm-1.53-8.4a.516.516 0 1 1-.516.516.516.516 0 0 1 .516-.519Zm-2.718.111 1.18.295c0 .037-.011.073-.011.11a1.551 1.551 0 0 0 1.55 1.55 1.533 1.533 0 0 0 .785-.221l.865.718a1.534 1.534 0 0 0-.1.536c0 .031.007.06.009.091l-1.682.336a1.55 1.55 0 0 0-1.188-.92L14.878 4.86a1.554 1.554 0 0 0 .483-.607Zm1.685 4.021a.516.516 0 1 1-.516-.516.516.516 0 0 1 .516.513Zm-3.1-5.165a.516.516 0 1 1-.516.516.516.516 0 0 1 .517-.52Zm.1 2.383 1.551 1.551a1.547 1.547 0 0 0-.525.715h-1.223a1.547 1.547 0 0 0-.673-.814Zm-3.211-.924 1.682-.336a1.554 1.554 0 0 0 .645.725l-.938 1.563-1.621-1.04a1.535 1.535 0 0 0 .24-.82c.005-.036-.002-.065-.004-.096Zm2.075 3.707a.516.516 0 1 1-.516-.516.516.516 0 0 1 .52.512ZM9.294 4.146a.516.516 0 1 1-.516.516.516.516 0 0 1 .521-.52Zm-.562 1.957a1.449 1.449 0 0 0 .99.042l1.595 1.023a1.547 1.547 0 0 0-.377.594H8.685a1.551 1.551 0 0 0-.61-.78Zm-1.5 2.692a.516.516 0 1 1 .516-.516.516.516 0 0 1-.515.511Zm1.55 4.649a.516.516 0 1 1 .516-.516.516.516 0 0 1-.513.511Zm.294-2.036a1.55 1.55 0 0 0-.294-.03c-.051 0-.1.01-.149.015l-.7-1.738a1.548 1.548 0 0 0 .758-.86h2.256a1.545 1.545 0 0 0 .466.667Zm3.934 1h-2.773a1.538 1.538 0 0 0-.236-.429l2.537-2.114.864 1.937a1.547 1.547 0 0 0-.393.604Zm.843-3.616h1.223a1.547 1.547 0 0 0 .673.814l-1.074 1.79a1.536 1.536 0 0 0-.211-.021c-.04 0-.078.009-.117.012l-.887-1.989a1.547 1.547 0 0 0 .392-.608Zm.612 4.649a.516.516 0 1 1 .516-.516.516.516 0 0 1-.517.514Zm2.2-3.36 1.442 1.154a1.542 1.542 0 0 0-.478.735l-1.744.349a1.551 1.551 0 0 0-.3-.447Zm.894 8.525a.516.516 0 1 1 .516-.516.516.516 0 0 1-.512.514Zm2.066-2.583a1.531 1.531 0 0 0 .092.506l-.872.7a1.49 1.49 0 0 0-1.522-.662l-1.715-2.608a1.54 1.54 0 0 0 .331-.594l1.744-.349a1.548 1.548 0 0 0 2.023.824l.637.883a1.546 1.546 0 0 0-.714 1.298Zm.5-4.773.992-2.466c.021 0 .04.006.061.006a1.518 1.518 0 0 0 .186-.019l.625 1.248a1.544 1.544 0 0 0-.811 1.354c0 .021.005.04.006.061l-.694.278a1.548 1.548 0 0 0-.358-.464Zm1.046 5.29a.516.516 0 1 1 .516-.516.516.516 0 0 1-.509.514Z"/></svg>