<svg xmlns="http://www.w3.org/2000/svg" width="30.791" height="31"><path d="m6.65 25.041-.472-.447c2.353-2.308 4.748-5.143 4.748-8.989s-2.4-6.681-4.748-8.99l.472-.447c2.028-1.916 3.779-3.571 3.779-5.462v-.5h-.993v.5a2.492 2.492 0 0 1-.23.993H1.72a2.492 2.492 0 0 1-.23-.993v-.5H.497v.5c0 1.891 1.751 3.546 3.779 5.462l.472.447C2.396 8.923 0 11.759 0 15.605s2.4 6.681 4.748 8.99l-.472.447C2.248 26.958.497 28.613.497 30.504v.5h.993v-.5a2.492 2.492 0 0 1 .23-.993h7.486a2.5 2.5 0 0 1 .23.993v.5h.993v-.5c0-1.891-1.751-3.546-3.779-5.463ZM2.314 2.692h6.3a11.661 11.661 0 0 1-.848.993h-4.6a11.571 11.571 0 0 1-.852-.993Zm1.838 1.987h2.622c-.261.251-.53.506-.806.767l-.5.478-.5-.478a42.493 42.493 0 0 1-.816-.767Zm1.311 2.626c.6.588 1.195 1.2 1.744 1.844H3.72a27.42 27.42 0 0 1 1.743-1.845Zm-3.7 4.824h4.693v-.993H2.287q.32-.54.693-1.049v.056h4.966v-.056q.373.509.693 1.049H7.45v.993h1.714a9.039 9.039 0 0 1 .376.993H1.387a8.94 8.94 0 0 1 .376-.994Zm-.632 1.987h8.665a8.252 8.252 0 0 1 .115.993H1.02a8.056 8.056 0 0 1 .111-.994Zm.256 3.973H2.98v-.993H1.13a8.252 8.252 0 0 1-.115-.993H9.91a8.055 8.055 0 0 1-.115.993H3.973v.993h5.566a8.94 8.94 0 0 1-.376.993h-7.4a9.039 9.039 0 0 1-.376-.994Zm1.593 3.034q-.373-.51-.693-1.049H8.64q-.319.54-.693 1.049v-.056H2.98Zm.739.938h3.488a27.674 27.674 0 0 1-1.744 1.844 27.403 27.403 0 0 1-1.743-1.844Zm1.239 3.7.5-.478.5.478c.276.261.546.516.806.767H4.152l.806-.765Zm-2.644 2.756a11.661 11.661 0 0 1 .848-.993h4.6a11.661 11.661 0 0 1 .848.993Zm25.994-1.49h-.8A14.379 14.379 0 0 0 24.69 9.518l1.348-1.348-.994-.994 1.781-1.78.5.5 2.182-2.2L25.824 0l-2.178 2.214.493.493-1.783 1.777-.99-.99-6.953 6.953-.993-.993-2.192 2.192 6.662 6.662 2.192-2.192-.993-.993 2.786-2.786a10.5 10.5 0 0 1 3.03 4.807 1.982 1.982 0 0 0 .38 3.918 10.438 10.438 0 0 1-.193 1.234 3.458 3.458 0 0 0-1.249-.236h-7.45a2.486 2.486 0 0 0-2.483 2.483v.5h6.5a3.489 3.489 0 0 0-.04.5v1.49h-6.953a2.486 2.486 0 0 0-2.483 2.483V31h19.865v-1.49a2.486 2.486 0 0 0-2.491-2.483ZM25.828 1.41l2.276 2.283-.785.792-2.273-2.276Zm-.991 2 1.285 1.284-1.776 1.779-1.287-1.287ZM17.885 16.9l-5.257-5.257.788-.788 5.257 5.257Zm.5-2.483-3.271-3.271L21.362 4.9l3.271 3.271Zm4.192-2.787 1.413-1.413a13.405 13.405 0 0 1 3.311 14.966 3.472 3.472 0 0 0-1.31-2.377 11.441 11.441 0 0 0 .308-2 1.971 1.971 0 0 0-.347-3.6 11.489 11.489 0 0 0-3.378-5.573Zm1.762 7.448a.993.993 0 1 1 .993.993.994.994 0 0 1-.997-.99Zm-9.351 4.966a1.493 1.493 0 0 1 1.4-.993h5.021a3.483 3.483 0 0 0-.708.993Zm14.814 5.96H11.919v-.5a1.492 1.492 0 0 1 1.49-1.49h8.937v-.993h-.993v-1.49a2.483 2.483 0 1 1 4.966 0v1.49h-2.973v.993h4.966a1.492 1.492 0 0 1 1.49 1.49Z"/></svg>