<svg xmlns="http://www.w3.org/2000/svg" width="31" height="31"><path d="M6.717 26.115H5.4a2.724 2.724 0 1 0-1.691 0H2.348A2.355 2.355 0 0 0 0 28.463v2.067a.444.444 0 0 0 .47.47H8.6a.444.444 0 0 0 .47-.47v-2.067a2.355 2.355 0 0 0-2.353-2.348Zm-3.945-2.583a1.785 1.785 0 1 1 1.785 1.785 1.815 1.815 0 0 1-1.786-1.786ZM.939 30.06v-1.6a1.413 1.413 0 0 1 1.409-1.405H6.67a1.413 1.413 0 0 1 1.409 1.409v1.6Zm16.722-3.945h-1.315a2.724 2.724 0 1 0-1.691 0H13.34a2.355 2.355 0 0 0-2.348 2.348v2.067a.444.444 0 0 0 .47.47h8.126a.444.444 0 0 0 .47-.47v-2.067a2.4 2.4 0 0 0-2.397-2.348Zm-3.945-2.583a1.785 1.785 0 1 1 1.785 1.785 1.815 1.815 0 0 1-1.786-1.786Zm5.355 6.529h-7.139v-1.6a1.413 1.413 0 0 1 1.409-1.409h4.321a1.413 1.413 0 0 1 1.409 1.409Zm9.581-3.946h-1.315a2.724 2.724 0 1 0-1.691 0h-1.315a2.355 2.355 0 0 0-2.348 2.348v2.067a.444.444 0 0 0 .47.47h8.079a.444.444 0 0 0 .47-.47v-2.067a2.355 2.355 0 0 0-2.35-2.348Zm-3.945-2.583a1.785 1.785 0 1 1 1.785 1.785 1.815 1.815 0 0 1-1.787-1.786Zm5.355 6.529h-7.186v-1.6a1.413 1.413 0 0 1 1.409-1.409h4.368a1.413 1.413 0 0 1 1.409 1.409ZM15.5 5.214a2.616 2.616 0 0 0 2.583-2.63A2.576 2.576 0 0 0 15.5 0a2.616 2.616 0 0 0-2.583 2.63A2.576 2.576 0 0 0 15.5 5.214Zm0-4.274a1.674 1.674 0 0 1 1.644 1.691 1.645 1.645 0 1 1-3.288 0A1.674 1.674 0 0 1 15.5.939Z"/><path d="M23.062 15.033a.493.493 0 0 0 .423-.235l1.456-2.677a.427.427 0 0 0 0-.47.493.493 0 0 0-.423-.235H19.68V7.938a2.563 2.563 0 0 0-2.348-2.677h-3.617a2.5 2.5 0 0 0-2.348 2.677v3.476H6.482a.493.493 0 0 0-.423.235.427.427 0 0 0 0 .47l1.456 2.677a.493.493 0 0 0 .423.235h.611l1.926 9.065a.479.479 0 0 0 .939-.188l-1.879-8.875h11.977l-1.879 8.877a.479.479 0 0 0 .939.188l1.879-9.065h.611Zm-9.394-8.83h3.621a1.569 1.569 0 0 1 1.409 1.738v3.476h-.611v-.7a.47.47 0 0 0-.939 0v.7H13.86v-.7a.47.47 0 0 0-.939 0v.7h-.611V7.938h-.047A1.632 1.632 0 0 1 13.668 6.2ZM8.22 14.094l-.939-1.738H23.72l-.939 1.738Z"/></svg>