<svg width="12" height="8" fill="none" xmlns="http://www.w3.org/2000/svg"><path d="M11.903 3.731C10.645 1.407 8.44 0 6 0 3.56 0 1.35 1.407.104 3.731L0 3.907l.097.179C1.354 6.41 3.56 7.817 6 7.817c2.44 0 4.65-1.388 5.903-3.731l.097-.18-.097-.175ZM6 7.052c-2.1 0-4.03-1.171-5.15-3.145C1.97 1.933 3.9.76 6 .76c2.1 0 4.008 1.176 5.146 3.146C10.007 5.88 8.097 7.052 6 7.052Z" fill="#868686"/><path d="M6.108 1.358a2.56 2.56 0 1 0 .038 5.12 2.56 2.56 0 0 0-.038-5.12Zm0 4.373a1.813 1.813 0 1 1 .038-3.626 1.813 1.813 0 0 1-.038 3.626Z" fill="#868686"/></svg>