<svg width="68" height="129" viewBox="0 0 68 129" fill="none" xmlns="http://www.w3.org/2000/svg">
<mask id="path-1-inside-1_1324_415" fill="white">
<path d="M0.0884318 125.622C-0.0126133 127.432 1.37351 128.99 3.18664 128.999C10.7614 129.036 18.2924 127.738 25.4319 125.157C33.6019 122.203 41.0908 117.629 47.4495 111.709C53.8081 105.789 58.9054 98.6463 62.4354 90.7082C65.9654 82.7702 67.8554 74.2008 67.992 65.5143C68.1286 56.8278 66.509 48.2032 63.2304 40.1581C59.9518 32.1129 55.0817 24.813 48.9123 18.6964C42.743 12.5797 35.4016 7.77246 27.3286 4.56296C20.2737 1.75823 12.7873 0.224213 5.21511 0.0228006C3.4026 -0.0254104 1.96816 1.48846 2.01223 3.30107V3.30107C2.05629 5.11369 3.56241 6.53765 5.37461 6.59632C12.062 6.81282 18.67 8.18649 24.9029 10.6644C32.154 13.5472 38.7481 17.8651 44.2894 23.3591C49.8307 28.8531 54.2051 35.4099 57.1499 42.636C60.0948 49.8622 61.5496 57.6088 61.4268 65.411C61.3041 73.2133 59.6065 80.9103 56.4358 88.0403C53.2652 95.1703 48.6868 101.586 42.9755 106.903C37.2641 112.22 30.5375 116.329 23.1993 118.982C16.8916 121.263 10.2437 122.428 3.55277 122.434C1.73963 122.436 0.189477 123.812 0.0884318 125.622V125.622Z"/>
</mask>
<path d="M0.0884318 125.622C-0.0126133 127.432 1.37351 128.99 3.18664 128.999C10.7614 129.036 18.2924 127.738 25.4319 125.157C33.6019 122.203 41.0908 117.629 47.4495 111.709C53.8081 105.789 58.9054 98.6463 62.4354 90.7082C65.9654 82.7702 67.8554 74.2008 67.992 65.5143C68.1286 56.8278 66.509 48.2032 63.2304 40.1581C59.9518 32.1129 55.0817 24.813 48.9123 18.6964C42.743 12.5797 35.4016 7.77246 27.3286 4.56296C20.2737 1.75823 12.7873 0.224213 5.21511 0.0228006C3.4026 -0.0254104 1.96816 1.48846 2.01223 3.30107V3.30107C2.05629 5.11369 3.56241 6.53765 5.37461 6.59632C12.062 6.81282 18.67 8.18649 24.9029 10.6644C32.154 13.5472 38.7481 17.8651 44.2894 23.3591C49.8307 28.8531 54.2051 35.4099 57.1499 42.636C60.0948 49.8622 61.5496 57.6088 61.4268 65.411C61.3041 73.2133 59.6065 80.9103 56.4358 88.0403C53.2652 95.1703 48.6868 101.586 42.9755 106.903C37.2641 112.22 30.5375 116.329 23.1993 118.982C16.8916 121.263 10.2437 122.428 3.55277 122.434C1.73963 122.436 0.189477 123.812 0.0884318 125.622V125.622Z" stroke="#D75F25" stroke-width="8" mask="url(#path-1-inside-1_1324_415)"/>
</svg>
