<svg width="53" height="105" viewBox="0 0 53 105" fill="none" xmlns="http://www.w3.org/2000/svg">
<mask id="path-1-inside-1_1324_413" fill="white">
<path d="M52.5 2.08029C52.5 0.931376 51.5679 -0.00430164 50.4198 0.0411801C37.2519 0.562863 24.7312 6.02262 15.3769 15.3769C5.53123 25.2226 -1.85226e-06 38.5761 -2.29485e-06 52.5C-2.73744e-06 66.4239 5.53123 79.7774 15.3769 89.6231C24.7312 98.9774 37.2519 104.437 50.4198 104.959C51.5679 105.004 52.5 104.069 52.5 102.92V102.92C52.5 101.771 51.5679 100.844 50.42 100.795C38.356 100.276 26.8928 95.2551 18.3189 86.6811C9.25347 77.6157 4.16058 65.3204 4.16058 52.5C4.16058 39.6796 9.25347 27.3843 18.3189 18.3189C26.8928 9.74492 38.356 4.72444 50.42 4.2053C51.5679 4.15591 52.5 3.2292 52.5 2.08029V2.08029Z"/>
</mask>
<path d="M52.5 2.08029C52.5 0.931376 51.5679 -0.00430164 50.4198 0.0411801C37.2519 0.562863 24.7312 6.02262 15.3769 15.3769C5.53123 25.2226 -1.85226e-06 38.5761 -2.29485e-06 52.5C-2.73744e-06 66.4239 5.53123 79.7774 15.3769 89.6231C24.7312 98.9774 37.2519 104.437 50.4198 104.959C51.5679 105.004 52.5 104.069 52.5 102.92V102.92C52.5 101.771 51.5679 100.844 50.42 100.795C38.356 100.276 26.8928 95.2551 18.3189 86.6811C9.25347 77.6157 4.16058 65.3204 4.16058 52.5C4.16058 39.6796 9.25347 27.3843 18.3189 18.3189C26.8928 9.74492 38.356 4.72444 50.42 4.2053C51.5679 4.15591 52.5 3.2292 52.5 2.08029V2.08029Z" stroke="#13A2D4" stroke-width="8" mask="url(#path-1-inside-1_1324_413)"/>
</svg>
