<svg width="10" height="12" fill="none" xmlns="http://www.w3.org/2000/svg"><path d="m4.973 6.836.004-.019c.077-.32.175-.72.099-1.08a.46.46 0 0 0-.44-.405c-.212-.01-.401.11-.448.286-.088.322-.01.761.135 1.32a15.951 15.951 0 0 1-.686 1.44c-.396.205-.928.522-1.007.92a.391.391 0 0 0 .047.252.412.412 0 0 0 .366.228c.236 0 .617-.19 1.126-1.063l.236-.08c.364-.123.742-.251 1.083-.309.378.203.808.332 1.1.332.29 0 .403-.17.446-.274.075-.18.039-.409-.083-.53-.177-.175-.607-.22-1.276-.137-.33-.2-.546-.474-.702-.881ZM3.503 8.87c-.186.27-.326.406-.403.465.09-.165.266-.339.404-.465Zm1.174-3.154c.07.12.06.48.006.662-.065-.267-.075-.645-.036-.689.011.002.02.01.03.027ZM4.655 7.33c.144.248.324.46.524.619-.29.065-.553.174-.789.27l-.165.067c.179-.323.327-.688.43-.956Zm2.084.877c.002.003.003.007-.005.012H6.73l-.002.004c-.011.007-.121.071-.594-.115.544-.025.603.098.604.1Zm2.564-5.199L6.42.126A.428.428 0 0 0 6.118 0H.428A.428.428 0 0 0 0 .429V11.57c0 .238.192.429.429.429H9a.428.428 0 0 0 .429-.429V3.312a.43.43 0 0 0-.126-.304Zm-.863.5H5.92V.989l2.52 2.52Zm.024 7.528h-7.5V.964H5.01v2.893a.562.562 0 0 0 .562.563h2.893v6.616Z" fill="#009FE3"/></svg>