<svg width="13" height="12" fill="none" xmlns="http://www.w3.org/2000/svg"><path d="M10.62 12h-.079C1.472 11.479.184 3.826.004 1.49A1.385 1.385 0 0 1 1.278 0h2.543a.923.923 0 0 1 .859.582l.701 1.726a.923.923 0 0 1-.203.997l-.983.992a4.325 4.325 0 0 0 3.499 3.508l1.001-.993a.923.923 0 0 1 1.002-.189l1.74.697a.923.923 0 0 1 .567.858v2.437A1.385 1.385 0 0 1 10.62 12ZM1.389.923a.462.462 0 0 0-.462.462v.037c.213 2.732 1.574 9.193 9.665 9.655a.46.46 0 0 0 .49-.434V8.178l-1.74-.696-1.325 1.315-.222-.028c-4.015-.503-4.56-4.518-4.56-4.56l-.028-.221 1.311-1.325-.692-1.74H1.389Z" fill="#009FE3"/></svg>