<svg width="10" height="12" fill="none" xmlns="http://www.w3.org/2000/svg"><path d="M3.536 5.518a.107.107 0 0 0-.107.107v3.696c0 .06.048.108.107.108h.435a.107.107 0 0 0 .107-.108V8.042h.848c.795 0 1.288-.52 1.288-1.26 0-.73-.486-1.263-1.285-1.263H3.536v-.001ZM5.553 6.78c0 .581-.355.727-.954.727h-.52V6.056h.752c.452 0 .722.264.722.725Zm3.75-3.773L6.42.126A.428.428 0 0 0 6.118 0H.428A.428.428 0 0 0 0 .429V11.57c0 .238.192.429.429.429H9a.428.428 0 0 0 .429-.429V3.312a.43.43 0 0 0-.126-.304Zm-.863.5H5.92V.989l2.52 2.52Zm.024 7.528h-7.5V.964H5.01v2.893a.562.562 0 0 0 .562.563h2.893v6.616Z" fill="#009FE3"/></svg>