<svg width="20" height="20" viewBox="0 0 20 20" fill="none" xmlns="http://www.w3.org/2000/svg">
<path d="M17.9993 9.99999L10.3229 17.6765C9.262 18.7373 7.82316 19.3333 6.32287 19.3333C3.19868 19.3333 0.666016 16.8007 0.666016 13.6765C0.666016 12.1762 1.262 10.7373 2.32287 9.67647L10.2281 1.77122C10.9354 1.06398 11.8946 0.666656 12.8948 0.666656C14.9776 0.666656 16.666 2.3551 16.666 4.43789C16.666 5.43809 16.2687 6.39732 15.5614 7.10456L7.88497 14.781C7.53134 15.1347 7.05173 15.3333 6.55163 15.3333C5.51023 15.3333 4.66602 14.4891 4.66602 13.4477C4.66602 12.9476 4.86468 12.468 5.2183 12.1144L12.666 4.66666" stroke="black"/>
</svg>
