<svg width="15" height="15" fill="none" xmlns="http://www.w3.org/2000/svg"><path d="M2.544 15c-.653 0-1.233-.262-1.74-.786C.268 13.659 0 12.987 0 12.195c0-.79.268-1.464.804-2.018L9.211.954c.428-.453.923-.746 1.483-.877a2.994 2.994 0 0 1 1.704.106c.575.202 1.106.55 1.593 1.043.156.172.3.36.431.567.132.207.24.424.322.65A4.397 4.397 0 0 1 15 3.918c-.02 1.07-.37 1.961-1.053 2.677l-6.36 6.985a.435.435 0 0 1-.32.159.428.428 0 0 1-.33-.129.482.482 0 0 1-.146-.34.495.495 0 0 1 .124-.355l6.36-6.985c.516-.545.78-1.22.79-2.026.01-.807-.24-1.467-.746-1.981a3.254 3.254 0 0 0-1.038-.756A2.199 2.199 0 0 0 11.053 1c-.439.06-.829.267-1.17.62l-8.406 9.222a1.866 1.866 0 0 0-.541 1.346c0 .524.18.973.54 1.345.166.172.347.3.542.386.194.086.4.118.614.098.428-.02.828-.226 1.198-.62l6.682-7.348a2.141 2.141 0 0 0 .277-.355 1.215 1.215 0 0 0 .175-.499.516.516 0 0 0-.043-.264.858.858 0 0 0-.175-.257c-.186-.202-.366-.293-.541-.272-.185.02-.395.146-.629.377l-5.03 5.534a.492.492 0 0 1-.204.129.435.435 0 0 1-.241.007.43.43 0 0 1-.212-.12.437.437 0 0 1-.146-.333c0-.131.044-.247.131-.348l5.03-5.549c.4-.403.804-.625 1.213-.665.468-.04.897.141 1.286.544.37.373.534.812.49 1.316-.044.504-.28.977-.709 1.42l-6.681 7.364c-.546.564-1.155.867-1.828.907a.33.33 0 0 0-.065.007.324.324 0 0 1-.066.008Z" fill="#fff"/></svg>