<svg xmlns="http://www.w3.org/2000/svg" width="13.5" height="13.5"><path d="m397.352 657.46.04.037.021.015a.207.207 0 0 0 .024.017l.024.015.023.014.025.012.025.011a.25.25 0 0 0 .025.009l.027.01.025.006.028.007h.054a.515.515 0 0 0 .111 0h.055l.028-.007.025-.006.027-.01a.25.25 0 0 0 .025-.009l.024-.011.026-.012.023-.014.024-.015a.207.207 0 0 0 .024-.017l.02-.015a.489.489 0 0 0 .041-.037l2.812-2.812a.563.563 0 0 0-.795-.8l-1.853 1.852v-7.642a.562.562 0 1 0-1.124 0v7.642l-1.853-1.852a.563.563 0 0 0-.795.8Zm6.586-.4a.562.562 0 0 0-.563.562v2.25h-11.25v-2.25a.563.563 0 0 0-1.125 0v2.813a.562.562 0 0 0 .562.562h12.375a.563.563 0 0 0 .563-.562v-2.813a.562.562 0 0 0-.562-.559Z" transform="translate(-391 -647.5)" style="fill-rule:evenodd"/></svg>