<svg width="42" height="30" viewBox="0 0 42 30" fill="none" xmlns="http://www.w3.org/2000/svg">
<g clip-path="url(#clip0_1092_269)">
<path d="M41.0723 4.67917C40.8314 3.77476 40.3615 2.95024 39.7094 2.28771C39.0572 1.62519 38.2456 1.14777 37.3553 0.903C34.0961 0 20.9786 0 20.9786 0C20.9786 0 7.8605 0.0273333 4.60124 0.930333C3.71095 1.17512 2.89932 1.65256 2.24718 2.31512C1.59503 2.97768 1.12512 3.80223 0.884237 4.70667C-0.101615 10.5897 -0.484045 19.554 0.911307 25.2017C1.15221 26.1061 1.62213 26.9306 2.27428 27.5931C2.92643 28.2556 3.73804 28.7331 4.62831 28.9778C7.88757 29.8808 21.0054 29.8808 21.0054 29.8808C21.0054 29.8808 34.123 29.8808 37.3821 28.9778C38.2724 28.7331 39.084 28.2557 39.7362 27.5932C40.3884 26.9306 40.8583 26.1061 41.0992 25.2017C42.1391 19.3103 42.4595 10.3517 41.0723 4.67933V4.67917Z" fill="#FF0000"/>
<path d="M16.8034 21.3434L27.6854 14.9404L16.8034 8.53735V21.3434Z" fill="white"/>
</g>
<defs>
<clipPath id="clip0_1092_269">
<rect width="42" height="30" fill="white"/>
</clipPath>
</defs>
</svg>
