<svg width="50" height="50" fill="none" xmlns="http://www.w3.org/2000/svg"><g clip-path="url(#a)" fill="#D34937"><path d="M14.943 31.132a.43.43 0 0 0 .434-.425.43.43 0 0 0-.434-.424c-3.46 0-6.275-2.752-6.275-6.135 0-.436.048-.861.137-1.272h6.52a.43.43 0 0 0 .434-.425.43.43 0 0 0-.434-.424h-6.27c.886-2.34 3.19-4.013 5.888-4.013a.43.43 0 0 0 .434-.424.43.43 0 0 0-.434-.425c-.315 0-.625.022-.93.061.056-.379.153-1.04.286-1.91.015.002.03.005.045.005h6.502a.43.43 0 0 0 .434-.425.43.43 0 0 0-.434-.424H14.43c.099-.64.211-1.357.335-2.13h3.847a.43.43 0 0 0 .434-.425.43.43 0 0 0-.434-.425H14.9c.489-3.012 1.125-6.706 1.8-10.036a.425.425 0 0 0-.341-.5.434.434 0 0 0-.51.335c-1.391 6.857-2.615 15.252-2.74 16.108-3.053.793-5.31 3.518-5.31 6.75 0 3.85 3.204 6.983 7.143 6.983Zm22.164-13.907a7.32 7.32 0 0 0-.917-.06.43.43 0 0 0-.434.425.43.43 0 0 0 .434.425 6.32 6.32 0 0 1 4.741 2.123H35.07a.43.43 0 0 0-.434.424.43.43 0 0 0 .434.425h6.496c.57.924.9 2.006.9 3.162 0 3.383-2.815 6.135-6.275 6.135a.43.43 0 0 0-.434.424.43.43 0 0 0 .434.425c3.939 0 7.143-3.133 7.143-6.984 0-3.236-2.263-5.965-5.324-6.753-.125-.864-1.322-9.068-2.69-15.871a.434.434 0 0 0-.51-.335.425.425 0 0 0-.343.499c1.269 6.303 2.39 13.817 2.64 15.536Zm-5.691-6.77a.432.432 0 0 0 .498.352.426.426 0 0 0 .36-.487 260.93 260.93 0 0 0-1.59-8.795.434.434 0 0 0-.51-.335.425.425 0 0 0-.342.499 260.098 260.098 0 0 1 1.584 8.766Z"/><path d="M18.098 28.937c-.654-.805-2.346-2.062-4.096-1.087a.42.42 0 0 0-.163.58.44.44 0 0 0 .593.158c1.541-.86 2.93.81 2.989.88l.006.009c2.118 2.483 4.887 3.822 7.869 3.821.26 0 .523-.01.787-.03 2.937-.23 5.78-1.647 7.607-3.791a.264.264 0 0 0 .007-.009c.057-.071 1.436-1.738 2.976-.88a.44.44 0 0 0 .592-.159.42.42 0 0 0-.162-.579c-1.75-.976-3.435.282-4.085 1.088-1.655 1.94-4.338 3.275-7.005 3.483-2.988.233-5.799-1.004-7.915-3.484ZM46.302 46.91c-2.929-1.027-5.448-2.174-8.114-3.39-.716-.325-1.456-.662-2.209-1-.878-.392-1.86-.787-2.927-.897-1.32-2.188-1.417-6.743-1.418-6.79a.429.429 0 0 0-.442-.417.43.43 0 0 0-.427.432c.004.186.09 4.29 1.297 6.76a5.093 5.093 0 0 0-.646.094c-1.34.241-2.451.763-3.526 1.269-.709.333-1.44.677-2.236.938-1.03-.3-1.894-.708-2.805-1.138a39.569 39.569 0 0 0-1.413-.644 6.042 6.042 0 0 0-2.09-.503c1.214-2.468 1.301-6.59 1.305-6.776a.43.43 0 0 0-.427-.432.43.43 0 0 0-.442.418c0 .045-.096 4.61-1.423 6.796a7.855 7.855 0 0 0-2.695.699C12.1 44.042 8.52 45.53 3.694 47.307a.422.422 0 0 0-.254.547.434.434 0 0 0 .56.248c4.854-1.787 8.457-3.285 12.044-5.01 1.29-.604 3.289-.972 5.037-.19.486.207.946.424 1.39.634.984.464 1.913.903 3.072 1.225.083.023.17.022.252-.004.9-.282 1.7-.658 2.472-1.021 1.072-.504 2.084-.98 3.313-1.2.005 0 .01-.002.014-.003 1.453-.31 2.84.23 4.024.76.75.336 1.489.672 2.203.998 2.685 1.223 5.222 2.379 8.188 3.42a.437.437 0 0 0 .555-.257.423.423 0 0 0-.262-.543Z"/><path d="M17.403 44.028c-3.565 1.712-7.145 3.201-11.972 4.978a.422.422 0 0 0-.253.547.434.434 0 0 0 .56.248c4.854-1.787 8.457-3.286 12.048-5.011a.42.42 0 0 0 .198-.568.439.439 0 0 0-.581-.194Zm-.208-9.081c0 .014-.004 1.433-.33 2.836a.424.424 0 0 0 .424.518.432.432 0 0 0 .423-.33c.347-1.495.351-2.963.351-3.024a.43.43 0 0 0-.434-.425.43.43 0 0 0-.434.425ZM33.61 37.72a.428.428 0 0 0-.405.451c.071 1.05.813 2.972.845 3.053a.434.434 0 0 0 .56.246.422.422 0 0 0 .252-.547c-.202-.52-.738-2.04-.79-2.808a.433.433 0 0 0-.463-.396Z"/></g><defs><clipPath id="a"><path fill="#fff" d="M0 .948h50v48.88H0z"/></clipPath></defs></svg>