<svg width="50" height="31" fill="none" xmlns="http://www.w3.org/2000/svg"><path d="M49.684 30.05c-.1-.025-10.117-2.631-14.069-5.585-3.084-2.305-2-9.406-1.626-11.393.602-.806.988-1.455 1.149-1.74 1.195-2.12 3.305-9.514 3.395-9.828a.42.42 0 1 0-.807-.232c-.016.056-1.188 4.165-2.263 7.136h-3.85a.42.42 0 0 0-.419.421.42.42 0 0 0 .42.422h3.534c-.269.694-.522 1.279-.74 1.665-1.384 2.452-4.91 6.683-9.359 7.016-4.45-.333-7.974-4.564-9.358-7.016-.186-.33-.398-.804-.624-1.367h7.564a.42.42 0 0 0 0-.844h-7.887a66.21 66.21 0 0 1-.609-1.736h4.35a.42.42 0 0 0 .42-.422.42.42 0 0 0-.42-.421h-4.629a154.212 154.212 0 0 1-1.483-4.854.42.42 0 1 0-.807.232c.09.314 2.2 7.709 3.395 9.828.15.266.496.85 1.032 1.582.337 1.734 1.564 9.18-1.609 11.551C10.433 27.42.416 30.025.315 30.05a.422.422 0 0 0 .209.817c.418-.107 10.277-2.673 14.361-5.725 3.13-2.34 2.558-8.273 2.105-10.976.438.504.942 1.03 1.51 1.543 2.081 1.875 4.275 2.907 6.52 3.066a.415.415 0 0 0 .059 0c2.245-.16 4.438-1.19 6.519-3.066.517-.466.98-.943 1.389-1.405-.448 2.763-.95 8.538 2.128 10.838 2.2 1.644 6.076 3.147 9.25 4.2h-6.828a.42.42 0 0 0 0 .844h9.513c1.366.406 2.303.65 2.426.681a.42.42 0 0 0 .51-.303.422.422 0 0 0-.301-.514Z" fill="#D34937"/><path d="M30.953 16.826a.419.419 0 0 0-.457.38c-.216 2.288-.206 5.466 1.07 7.611a.419.419 0 0 0 .575.146.423.423 0 0 0 .145-.579c-1.16-1.948-1.16-4.935-.955-7.098a.421.421 0 0 0-.378-.46Zm-12.995 8.136a.416.416 0 0 0 .575-.145c1.275-2.145 1.286-5.323 1.07-7.61a.42.42 0 1 0-.836.079c.204 2.163.205 5.15-.954 7.098a.423.423 0 0 0 .145.578Zm18.245 2.498c-.68.084-6.689.847-8.033 2.094a.423.423 0 0 0 .285.731.417.417 0 0 0 .285-.112c.868-.805 4.999-1.563 7.564-1.875a.421.421 0 0 0-.1-.837Zm-22.406 0a.42.42 0 0 0-.101.838c1.775.216 6.593.974 7.564 1.875a.417.417 0 0 0 .593-.024.423.423 0 0 0-.023-.596c-1.345-1.246-7.352-2.01-8.033-2.092Z" fill="#D34937"/></svg>