<svg width="42" height="51" fill="none" xmlns="http://www.w3.org/2000/svg"><path d="M34.808 34.133c2.07-3.53 3.108-5.301 5.098-9.84 2.258-5.148 1.413-9.828.65-11.583-1.429-3.29-1.877-3.977-4.357-6.674C34.107 3.76 28.111.389 20.93 1.03c-7.142.638-9.404 1.542-12.023 2.59l-.252.1c-2.971 1.186-3.11 2.816-3.342 5.516l-.011.128c-.188 2.186.241 3.316.494 3.775-.412.961-1.982 4.762-1.835 6.45.058.67.249 1.186.416 1.641.304.824.456 1.238-.296 2.03C3.04 24.357-.267 28.077.87 29.933c.471.77 1.197 1.086 1.726 1.317.69.3.675.346.595.602-.69 2.2-.68 4.032.026 5.443.36.718.683 1.01.896 1.202.14.126.14.128.145.183.018.21-.094.695-.206 1.143-.315 1.255.106 2.14.515 2.663.683.872 1.743 1.27 2.439 1.27.141 0 .337-.008.584-.016 1.37-.049 5.534-.197 5.928 1.262.557 2.064 2.231 5.438 2.302 5.58a.444.444 0 0 0 .794-.392c-.017-.035-1.706-3.439-2.24-5.418-.577-2.137-4.79-1.988-6.815-1.916-.239.008-.428.015-.553.015-.503 0-1.262-.319-1.74-.93-.418-.533-.537-1.174-.354-1.904.353-1.41.325-1.718-.204-2.195a2.469 2.469 0 0 1-.458-.522c1.86-.757 9.41-3.464 13.348.657 3.732 3.906 6.081 12.439 6.104 12.525a.443.443 0 0 0 .856-.231c-.097-.36-2.43-8.834-6.319-12.904-2.051-2.148-5.272-2.938-9.314-2.287a23.576 23.576 0 0 0-5.075 1.446c-.378-1.01-.376-2.273.005-3.767.932-.4 3.552-1.442 6.452-1.824 4.787-.63 8.56.46 11.214 3.237 5.234 5.478 7.601 16.2 7.625 16.307a.443.443 0 0 0 .866-.186c-.097-.45-2.441-11.071-7.85-16.731-2.82-2.951-6.959-4.163-11.97-3.504a25.74 25.74 0 0 0-6.079 1.604c0-.716-.659-1.003-1.162-1.223-.49-.214-.998-.435-1.325-.968-.572-.934 1.126-3.525 3.099-5.602 1.13-1.19.802-2.081.485-2.943-.156-.423-.318-.861-.366-1.412-.12-1.39 1.3-4.972 1.857-6.235a.429.429 0 0 0-.06-.455c-.006-.008-.67-.9-.456-3.383l.011-.129.017-.192h8.544a.443.443 0 1 0 0-.884H6.296c.208-1.922.584-2.854 2.688-3.694l.253-.1c2.659-1.064 4.76-1.904 11.772-2.53 3.887-.348 7.163.565 9.227 1.393 2.626 1.052 4.464 2.409 5.31 3.328 2.414 2.627 2.807 3.228 4.197 6.428.24.553.554 1.674.674 3.161h-7.924a.443.443 0 1 0 0 .885h7.97a15.85 15.85 0 0 1-.174 2.703h-2.402a.443.443 0 1 0 0 .884h2.245a16.33 16.33 0 0 1-1.038 3.245c-1.53 3.486-2.492 5.325-3.807 7.61h-6.064a.443.443 0 1 0 0 .885h5.552c-.23.396-.474.81-.733 1.252l-.761 1.3c-1.415 2.422-1.56 5.793-.431 10.02.829 3.106 2.043 5.482 2.094 5.582a.444.444 0 0 0 .79-.404c-.049-.094-4.79-9.44-1.687-14.752l.76-1.3Z" fill="#D34937"/><path d="M33.456 8.142c2.07 2.251 2.406 2.766 3.598 5.51a.444.444 0 0 0 .813-.352c-1.232-2.838-1.619-3.43-3.757-5.756-1.807-1.965-6.983-4.877-13.18-4.323a.442.442 0 1 0 .08.88c3.33-.297 6.136.486 7.904 1.194 2.247.9 3.82 2.061 4.542 2.847ZM10.302 32.198c-3.148.414-5.565 1.539-5.666 1.587a.442.442 0 1 0 .378.8c.023-.012 2.41-1.12 5.426-1.513 3.976-.518 7.108.388 9.31 2.693a.443.443 0 0 0 .642-.61c-2.378-2.49-5.868-3.513-10.09-2.957Z" fill="#D34937"/></svg>