<svg width="50" height="51" fill="none" xmlns="http://www.w3.org/2000/svg"><g clip-path="url(#a)" fill="#D34937"><path d="M49.684 17.74c-.826-4.535-8-7.078-12.746-8.76-1.655-.587-3.085-1.094-3.693-1.499-2.143-1.424-1.333-5.94-1.322-6a.448.448 0 0 0-.883-.164c-.025.136-.41 2.264.043 4.222h-2.194a.449.449 0 1 0 0 .896h2.471c.287.714.726 1.353 1.386 1.792.7.466 2.109.965 3.892 1.597 4.55 1.614 11.429 4.052 12.162 8.076.66 3.624-.085 11.132-1.05 18.007h-2.37a.449.449 0 1 0 0 .897h2.243a311.351 311.351 0 0 1-2.262 13.49.448.448 0 0 0 .882.172c.199-1.016 4.853-24.98 3.441-32.726Z"/><path d="M43.791 21.359a.448.448 0 0 0-.898-.031c-.003.09-.343 9.016-3.317 18.61-.017.057-.106.355-.238.82h-7.176c-.667 0-.868.2-.868.448s.2.448.868.448h6.926c-.205.754-.45 1.693-.685 2.69h-2.22a.449.449 0 1 0 0 .896h2.016c-.417 1.898-.746 3.863-.66 5.067a.449.449 0 0 0 .897-.064c-.194-2.705 1.978-9.974 2-10.044 3.01-9.709 3.352-18.75 3.355-18.84Zm-18.496-.425c-.248 0-.45.2-.45.448v28.893a.449.449 0 0 0 .9 0V21.382a.449.449 0 0 0-.45-.448Zm-1.903 19.192c-.248 0-.449.2-.449.448v5.483a.449.449 0 0 0 .898 0v-5.483a.449.449 0 0 0-.449-.448Zm3.911-19.086c-.248 0-.449.2-.449.448v5.483a.449.449 0 0 0 .899 0v-5.483a.449.449 0 0 0-.45-.449ZM6.962 46.373a.602.602 0 0 1-.473-.072c-.298-.2-.48-.743-.512-1.528a.448.448 0 0 0-.898.037c.046 1.108.352 1.86.908 2.234.287.193.58.245.812.245.25 0 .43-.06.465-.072a.448.448 0 1 0-.302-.844Zm37.164-2.029a.449.449 0 0 0-.468.429c-.032.777-.211 1.317-.504 1.522a.596.596 0 0 1-.487.076.448.448 0 0 0-.296.846c.035.013.216.072.465.072.233 0 .525-.052.812-.245.556-.374.862-1.126.908-2.234a.448.448 0 0 0-.43-.466ZM15.147 32.322h-6.63c-.131-.669-.25-1.32-.36-1.95h2.022a.449.449 0 1 0 0-.897H8.007c-.77-4.762-.897-8.093-.898-8.147a.449.449 0 0 0-.899.03c.004.091.346 9.132 3.355 18.838.022.073 2.195 7.342 2 10.047a.449.449 0 0 0 .897.064c.206-2.868-1.944-10.064-2.037-10.372A73.431 73.431 0 0 1 8.7 33.219h6.447a.449.449 0 1 0 0-.897Z"/><path d="M4.682 33.06H1.86C1.104 27.057.63 21.035 1.202 17.9c.375-2.059 2.359-3.702 4.816-5.033h9.023a.449.449 0 1 0 0-.896H7.834c1.878-.852 3.86-1.555 5.53-2.147 1.783-.632 3.191-1.13 3.892-1.597 2.638-1.755 1.745-6.7 1.706-6.91a.45.45 0 0 0-.883.165c.008.045.829 4.57-1.321 6-.609.404-2.039.91-3.694 1.498-4.747 1.682-11.92 4.225-12.746 8.76-1.412 7.745 3.198 31.608 3.395 32.62a.449.449 0 0 0 .882-.17c-.028-.14-1.553-8.033-2.621-16.233h2.708a.449.449 0 1 0 0-.897Zm15.116-.738h-2.431a.449.449 0 1 0 0 .897h2.431a.449.449 0 1 0 0-.897Z"/></g><defs><clipPath id="a"><path fill="#fff" d="M0 .951h50v49.877H0z"/></clipPath></defs></svg>