<svg width="50" height="51" fill="none" xmlns="http://www.w3.org/2000/svg"><g clip-path="url(#a)"><path d="M49.614 32.932c-.724-3.958-2.48-8.192-4.945-11.922-2.28-3.452-4.905-6.089-7.204-7.235-2.417-1.206-4.256-1.383-5.467-.528-1.705 1.205-1.45 3.975-1.413 4.309v9.47l-2.774-1.702a.334.334 0 0 1-.11-.199V1.95a.437.437 0 0 0-.875 0V9.4h-1.86a.437.437 0 1 0 0 .872h1.86v6.483h-1.783a.437.437 0 1 0 0 .872h1.783v7.497c0 .358.222.754.527.942l5.233 3.212c.14.086.316.086.456.001l4.574-2.775a.374.374 0 1 1 .39.64L33.3 29.999c-.13.08-.21.22-.21.373v1.608c0 .08.022.159.064.227l2.754 4.517a.374.374 0 1 1-.641.39l-2.936-4.817a.436.436 0 0 0-.139-.14l-.927-.59-6.017-3.823a.437.437 0 0 0-.469.001v-.001l-7.115 4.505a.438.438 0 0 0-.14.142l-2.879 4.722a.374.374 0 1 1-.641-.389l2.84-4.657a.435.435 0 0 0 .064-.227v-1.416a.436.436 0 0 0-.21-.373l-4.79-2.906a.373.373 0 0 1-.126-.515.376.376 0 0 1 .515-.125l4.617 2.801a.44.44 0 0 0 .456 0l5.303-3.256c.306-.188.528-.584.528-.942V14.636h2.241a.436.436 0 1 0 0-.872h-2.241v-6.67h1.95a.437.437 0 1 0 0-.871h-1.95V1.95a.437.437 0 0 0-.875 0v23.158c0 .055-.064.17-.11.199l-2.802 1.72v-9.471c.037-.334.291-3.104-1.414-4.309-1.21-.855-3.05-.678-5.467.528-2.298 1.146-4.924 3.783-7.204 7.235-2.464 3.73-4.22 7.965-4.945 11.922-1.093 5.972.149 11.093 3.59 14.81a.442.442 0 0 0 .018.018c.112.107 2.643 2.506 5.1 2.506.136 0 .272-.008.407-.023 1.013-.116 1.845-.663 2.472-1.626 1.517-2.327 2.893-3.086 4.223-3.82.745-.411 1.514-.836 2.265-1.516 1.084-.983.976-2.722.955-2.96v-8.147l5.599-3.546 5.57 3.54v8.152c-.02.24-.128 1.978.956 2.96.75.68 1.52 1.105 2.264 1.516 1.331.735 2.707 1.494 4.224 3.821.627.963 1.459 1.51 2.472 1.626.135.015.27.023.407.023 2.457 0 4.988-2.4 5.1-2.507a.627.627 0 0 0 .018-.018c3.441-3.716 4.683-8.837 3.589-14.81Zm-31.07 7.453c0 .015.14 1.514-.672 2.25-.675.612-1.367.994-2.1 1.398-1.358.75-2.898 1.6-4.533 4.11-.484.743-1.086 1.147-1.837 1.234-2.106.242-4.63-2.084-4.795-2.238a13.66 13.66 0 0 1-1.59-2.088H9.2a.437.437 0 1 0 0-.872H2.522a13.706 13.706 0 0 1-.667-1.496H5.45a.437.437 0 1 0 0-.872H1.56c-.941-3.093-.769-6.239-.314-8.723 1.509-8.241 7.366-16.382 11.68-18.533 2.075-1.035 3.655-1.242 4.569-.598.514.363.789.956.932 1.552h-1.98a.437.437 0 1 0 0 .872h2.11a6.44 6.44 0 0 1-.016 1.149v10.033l-1.4.86-4.388-2.663a1.253 1.253 0 0 0-1.717.417 1.236 1.236 0 0 0 .172 1.515H6.295a.437.437 0 1 0 0 .872h6.271l3.469 2.105v1.049l-.912 1.495H11.77a.437.437 0 1 0 0 .872h2.82l-1.333 2.186a1.242 1.242 0 0 0-.093.19h-5.17a.437.437 0 1 0 0 .872h5.154c.093.262.273.495.529.65a1.244 1.244 0 0 0 .945.146 1.24 1.24 0 0 0 .771-.563l2.826-4.635.322-.204v7.613c0 .015 0 .03.002.044Zm26.848 6.754c-.157.148-2.44 2.255-4.477 2.255-.106 0-.211-.005-.315-.017-.753-.086-1.354-.49-1.84-1.235-1.635-2.51-3.174-3.359-4.532-4.109-.66-.364-1.288-.712-1.9-1.225h2.982a.437.437 0 1 0 0-.872h-3.645c-.285-.724-.21-1.54-.208-1.55a.423.423 0 0 0 .002-.046v-7.617l.18.114 2.882 4.73a1.25 1.25 0 0 0 1.871.304h5.957a.437.437 0 1 0 0-.872h-5.515a1.236 1.236 0 0 0-.178-.728l-.457-.75h3.239a.437.437 0 1 0 0-.871h-3.77l-1.702-2.792v-1.241l3.453-2.096H43.6a.437.437 0 1 0 0-.872h-4.852a1.246 1.246 0 0 0-1.586-1.889l-4.345 2.636-1.358-.833V17.53a.424.424 0 0 0-.003-.054c-.003-.025-.302-2.566 1.05-3.518.913-.645 2.493-.438 4.568.597 4.314 2.151 10.171 10.292 11.68 18.533.726 3.966.732 9.622-3.362 14.05Z" fill="#D34937"/></g><defs><clipPath id="a"><path fill="#fff" d="M0 .951h50v49.877H0z"/></clipPath></defs></svg>