<svg width="48" height="51" fill="none" xmlns="http://www.w3.org/2000/svg"><path d="M46.723 31.873c.479-4.166 1.203-10.462-3.285-13.493-2.337-1.578-4.384-1.28-7.483-.83-.574.084-1.167.17-1.82.254-2.853.368-4.07-1.375-4.542-2.446-.53-1.205-.809-1.934-.955-2.366 1.427.277 4.617.643 6.117-1.192 1.868-2.286-.701-9.942-1-10.808a.434.434 0 1 0-.82.287c.376 1.092.98 3.125 1.339 5.104h-7.766c-1.227 0-2.2.362-2.892 1.076-1.052 1.086-1.05 2.59-1.048 2.72v20.557l-.884.546v-3.985c.029-.258.126-1.588-.752-2.212-.635-.453-1.566-.376-2.767.227-2.176 1.094-5.004 5.01-5.747 9.1-.52 2.859.075 5.316 1.719 7.105a.394.394 0 0 0 .018.018c.137.133 1.313 1.234 2.519 1.234.072 0 .144-.004.216-.012.534-.062.988-.36 1.313-.863.67-1.036 1.254-1.36 1.872-1.705.356-.198.724-.402 1.091-.738.57-.52.534-1.38.518-1.563v-3.66l2.359-1.505 2.346 1.502v3.663c-.015.183-.052 1.043.518 1.563.368.336.736.54 1.092.738.618.344 1.202.669 1.872 1.705.325.503.779.8 1.312.863.072.008.145.012.217.012 1.206 0 2.382-1.101 2.52-1.234a.314.314 0 0 0 .017-.018c1.644-1.79 2.239-4.246 1.719-7.106-.743-4.088-3.571-8.005-5.747-9.099-1.201-.603-2.132-.68-2.768-.227-.877.624-.78 1.954-.752 2.212v3.985l-.87-.538V10.983c-.001-.01-.03-.937.504-1.495.282-.294.67-.437 1.186-.437h7.362c.012.957-.122 1.748-.487 2.194-1.567 1.917-5.883.756-5.926.744a.431.431 0 0 0-.537.316c-.031.128-.115.469 1.178 3.406.419.952 1.664 3.017 4.578 3.017.274 0 .564-.019.868-.058.66-.085 1.257-.172 1.835-.256 3.105-.45 4.815-.7 6.873.69 3.235 2.185 3.447 6.44 3.169 10.08h-6.027a.436.436 0 0 0-.435.437c0 .241.195.437.435.437h5.95c-.057.6-.123 1.176-.185 1.714l-.041.358h-2.146a.436.436 0 0 0-.435.436c0 .241.195.437.435.437h2.051c-.015.156-.03.308-.042.453-.36 4.382.132 16.562.153 17.078a.435.435 0 1 0 .868-.036c-.005-.126-.511-12.641-.155-16.97.04-.487.106-1.055.175-1.655Zm-26.14 6.932c-.293.267-.602.438-.929.62-.652.363-1.392.774-2.18 1.993-.184.285-.407.439-.682.47-.734.086-1.703-.666-2.027-.974-1.824-1.994-1.819-4.55-1.493-6.346.686-3.775 3.334-7.496 5.281-8.475.866-.435 1.532-.54 1.876-.297.424.3.423 1.156.388 1.449l-.001 4.575-.417.257-1.91-1.167a.809.809 0 0 0-1.113.272.818.818 0 0 0 .271 1.12l2.009 1.227v.292l-1.251 2.068a.818.818 0 0 0 .271 1.119.81.81 0 0 0 1.113-.273l1.026-1.696v2.868a.3.3 0 0 0 .003.043c.015.164.003.637-.236.855Zm7.062-13.009c.343-.243 1.01-.138 1.875.297 1.948.979 4.595 4.7 5.281 8.475.326 1.796.331 4.353-1.493 6.346-.323.309-1.288 1.06-2.026.975-.275-.032-.498-.186-.682-.47-.789-1.22-1.528-1.63-2.18-1.994-.327-.181-.636-.353-.929-.62-.238-.218-.25-.69-.235-.852a.426.426 0 0 0 .002-.045v-2.803l.987 1.63a.81.81 0 0 0 1.113.273.818.818 0 0 0 .271-1.119l-1.211-2.002v-.382l1.969-1.203a.818.818 0 0 0-.23-1.487.801.801 0 0 0-.613.095l-1.89 1.155-.396-.245v-4.575c-.035-.293-.037-1.149.387-1.449Zm-.436-17.618c-.757 0-1.369.239-1.817.71-.759.798-.747 1.98-.742 2.12v19.805c0 .247.146.51.354.638l2.422 1.498c.061.038.13.059.2.064a.438.438 0 0 0-.077.246v.68a.422.422 0 0 0-.059-.044l-3.213-2.058-.023-.01a.43.43 0 0 0-.444.01l-3.285 2.097v-.65a.438.438 0 0 0-.086-.26.434.434 0 0 0 .19-.063l2.454-1.518a.786.786 0 0 0 .354-.638V10.163c0-.012-.023-1.244.801-2.094.523-.54 1.286-.813 2.27-.813h7.776a.43.43 0 0 0 .13-.022c.045.322.083.638.11.944h-7.315Z" fill="#D34937"/><path d="M38.543 32.161a.434.434 0 0 0-.844-.135c-.031.089-2.903 8.307-2.142 16.439h-3.111a.436.436 0 0 0 0 .873h3.168a.233.233 0 0 0 .038-.004c.05.395.11.79.178 1.181a.434.434 0 1 0 .856-.152c-1.032-5.862.212-12.169 1.096-15.554.167 3.338.562 9.434 1.433 15.767a.435.435 0 1 0 .86-.12c-1.287-9.363-1.53-18.206-1.532-18.295Zm-11.285-4.916c.002.017 0-.017 0 0Zm-6.441 0c0-.018-.002.018 0 0ZM6.703 22.883H2.341a7.721 7.721 0 0 1 1.036-2.14h1.895c.24 0 .435-.195.435-.437a.436.436 0 0 0-.435-.436H4.115c.278-.276.587-.533.932-.765 2.052-1.386 3.736-1.14 6.794-.694.583.085 1.186.173 1.856.26 3.54.456 4.988-1.918 5.447-2.96 1.25-2.843 1.34-4.449 1.342-4.516a.438.438 0 0 0-.181-.376c-.051-.036-4.286-3.111-5.82-7.302h3.575a.436.436 0 0 0 0-.873h-3.578a.43.43 0 0 0-.25.08 8.343 8.343 0 0 1-.277-1.618.435.435 0 1 0-.867.06c.358 5.25 5.398 9.366 6.506 10.21-.07.515-.328 1.897-1.245 3.982-.472 1.071-1.689 2.814-4.542 2.446-.662-.085-1.262-.173-1.842-.257-3.163-.462-5.073-.74-7.403.833C.074 21.41.798 27.707 1.277 31.873c.07.6.135 1.168.175 1.655.356 4.329-.15 16.845-.155 16.97a.436.436 0 0 0 .434.455.436.436 0 0 0 .434-.419c.021-.516.514-12.695.153-17.078a55.09 55.09 0 0 0-.177-1.684c-.268-2.329-.617-5.36-.031-8.015h4.594c.24 0 .434-.196.434-.437a.436.436 0 0 0-.435-.437Z" fill="#D34937"/><path d="M16.486 45.588h-3.972c-.008-7.086-2.243-13.483-2.271-13.562a.433.433 0 0 0-.844.135c-.002.088-.244 8.93-1.532 18.296a.436.436 0 0 0 .43.496c.214 0 .4-.158.43-.377.871-6.334 1.267-12.43 1.433-15.769.885 3.384 2.13 9.689 1.096 15.556a.435.435 0 1 0 .856.152c.236-1.342.356-2.706.39-4.053h3.984c.24 0 .434-.196.434-.437a.435.435 0 0 0-.434-.437Z" fill="#D34937"/></svg>