<svg width="52" height="52" fill="none" xmlns="http://www.w3.org/2000/svg"><g clip-path="url(#a)" fill="#009FE3"><path d="M6.823 6.96h-.01a1.017 1.017 0 0 0 0 2.035h.01a1.017 1.017 0 0 0 0-2.035Zm5.031 0h-.01a1.017 1.017 0 0 0 0 2.035h.01a1.017 1.017 0 0 0 0-2.035Zm5.03 0h-.01a1.017 1.017 0 0 0 0 2.035h.01a1.017 1.017 0 0 0 0-2.035Zm28.241 0H25.531a1.017 1.017 0 0 0 0 2.035h19.594a1.017 1.017 0 0 0 0-2.035ZM26.7 48.076c-.267 0-.528.109-.718.298-.19.189-.298.452-.298.72 0 .267.109.53.298.719.19.189.45.298.718.298.267 0 .53-.109.718-.298a1.024 1.024 0 0 0 0-1.439 1.023 1.023 0 0 0-.718-.298Z"/><path d="M48.773 2.086H3.227A3.234 3.234 0 0 0 0 5.319v41.559a3.233 3.233 0 0 0 3.227 3.233h19.218a1.016 1.016 0 0 0 0-2.035H3.227a1.198 1.198 0 0 1-1.196-1.198v-33.01H49.97v33.01c0 .66-.537 1.198-1.196 1.198H30.841a1.016 1.016 0 0 0 0 2.035h17.932A3.233 3.233 0 0 0 52 46.878V5.318a3.234 3.234 0 0 0-3.227-3.232ZM2.031 11.833V5.32c0-.66.537-1.198 1.196-1.198h45.546c.66 0 1.196.538 1.196 1.198v6.515H2.03Z"/><path d="M18.082 25.491c0-2.02-1.64-3.663-3.656-3.663h-3.42c-.56 0-1.015.455-1.015 1.017v10.583c0 .563.454 1.018 1.015 1.018h3.42a3.664 3.664 0 0 0 2.525-6.31 3.655 3.655 0 0 0 1.131-2.645Zm-2.031 5.292a1.63 1.63 0 0 1-1.625 1.628h-2.404v-3.257h2.404c.896 0 1.625.73 1.625 1.629Zm-4.029-3.664v-3.256h2.404a1.628 1.628 0 0 1 0 3.256h-2.404Zm8.966-5.291c-.561 0-1.016.455-1.016 1.017v8.23a3.372 3.372 0 0 0 3.365 3.371 1.017 1.017 0 0 0 0-2.035c-.735 0-1.334-.6-1.334-1.336v-8.23c0-.562-.454-1.017-1.015-1.017Zm12.006 8.933a3.685 3.685 0 0 0-3.677-3.685 3.686 3.686 0 0 0 0 7.37 3.685 3.685 0 0 0 3.677-3.685Zm-5.324 0c0-.91.739-1.65 1.647-1.65a1.65 1.65 0 0 1 0 3.3 1.65 1.65 0 0 1-1.647-1.65Zm10.661 6.535a1.65 1.65 0 0 1-1.646-1.65 1.016 1.016 0 1 0-2.032 0 3.686 3.686 0 0 0 3.678 3.685 3.686 3.686 0 0 0 3.678-3.685v-4.885a3.686 3.686 0 0 0-3.678-3.685 3.686 3.686 0 0 0 0 7.37c.592 0 1.151-.141 1.647-.391v1.591c0 .91-.739 1.65-1.647 1.65Zm0-4.885a1.65 1.65 0 0 1 0-3.3 1.65 1.65 0 0 1 0 3.3ZM11.006 44.419h29.987a1.017 1.017 0 0 0 0-2.036H11.006a1.017 1.017 0 0 0 0 2.035Z"/></g><defs><clipPath id="a"><path fill="#fff" d="M0 0h52v52H0z"/></clipPath></defs></svg>