<svg width="52" height="52" fill="none" xmlns="http://www.w3.org/2000/svg"><path d="M37.172 40.219a1.016 1.016 0 1 0 0 2.032 1.016 1.016 0 0 0 0-2.032Z" fill="#009FE3"/><path d="m39.672 36.934-4.827-1.608-1.733-3.466c1.561-1.59 2.645-3.692 3.011-5.885l.216-1.295h1.849a3.05 3.05 0 0 0 3.046-3.047v-6.399C41.234 6.834 34.4 0 26 0c-8.422 0-15.234 6.815-15.234 15.234v6.399c0 1.324.849 2.453 2.03 2.872v1.19a3.05 3.05 0 0 0 3.048 3.047h.892a11.016 11.016 0 0 0 2.15 3.12l-1.731 3.464-4.828 1.609c-5.612 1.871-9.686 7.78-9.686 14.05 0 .56.454 1.015 1.015 1.015h44.688c.56 0 1.015-.455 1.015-1.016 0-6.269-4.073-12.178-9.687-14.05Zm-.469-15.301c0 .56-.456 1.015-1.016 1.015h-1.55c.259-2 .43-4.127.5-6.223l.005-.175h2.061v5.383Zm-25.39 1.015c-.56 0-1.016-.455-1.016-1.015V16.25h2.061l.011.32v.011c.072 2.039.242 4.112.494 6.067h-1.55Zm2.03 4.063c-.56 0-1.015-.456-1.015-1.016V24.68h.833l.216 1.296a11 11 0 0 0 .15.735h-.183ZM14.83 14.219h-1.995C13.35 7.412 19.03 2.03 26 2.03c6.938 0 12.644 5.38 13.164 12.188H37.17c-.073-5.61-4.64-10.156-10.26-10.156h-1.82c-5.62 0-10.188 4.547-10.261 10.156Zm10.26-8.125h1.818c4.55 0 8.234 3.722 8.232 8.268 0 .32-.003.598-.008.851v.01l-1.27-.182a16.32 16.32 0 0 1-9.176-4.587 1.016 1.016 0 0 0-.718-.298 9.188 9.188 0 0 0-7.065 3.342c.426-4.135 3.922-7.404 8.187-7.404ZM18.133 26.71c-.508-1.691-1.09-6.668-1.219-9.857l1.367-1.823a7.149 7.149 0 0 1 5.286-2.832 18.37 18.37 0 0 0 10.008 4.853l1.495.214a62.497 62.497 0 0 1-.597 6.21c-.093.629-.166 1.034-.353 2.165-.538 3.226-2.946 6.144-6.123 6.938a8.261 8.261 0 0 1-3.993 0c-1.984-.496-3.804-1.869-4.978-3.837h2.07a3.052 3.052 0 0 0 2.873 2.031H26a3.046 3.046 0 1 0 0-6.093h-2.031a3.048 3.048 0 0 0-2.874 2.03h-2.962Zm5.75 7.923a10.15 10.15 0 0 0 3.777.085l-1.794 1.898-1.983-1.983Zm.587 3.46L21.249 41.5a38.7 38.7 0 0 1-2.274-5.273l1.21-2.42 4.285 4.286Zm7.173-4.63 1.382 2.764a38.698 38.698 0 0 1-2.274 5.274l-3.448-3.448 4.34-4.59Zm-8.69-5.737c0-.561.455-1.016 1.016-1.016H26a1.017 1.017 0 0 1 0 2.031h-2.031c-.56 0-1.016-.455-1.016-1.015ZM4.713 49.969c.402-5.032 3.75-9.605 8.257-11.107l4.275-1.425a40.715 40.715 0 0 0 2.89 6.27l.006.01a40.728 40.728 0 0 0 2.78 4.246l1.25 2.006H4.713ZM26 49.063l-1.377-2.21a.99.99 0 0 0-.05-.073 38.745 38.745 0 0 1-2.288-3.419l3.622-3.83 3.816 3.816a38.692 38.692 0 0 1-2.296 3.433c-.05.066.02-.038-1.427 2.283Zm1.83.906 1.248-2.006c1.019-1.36 1.96-2.8 2.8-4.279l.015-.027.002-.003a40.685 40.685 0 0 0 2.86-6.217l4.275 1.425c4.507 1.502 7.855 6.075 8.258 11.107H27.829Z" fill="#009FE3"/><path d="M44.235 45.858a10.155 10.155 0 0 0-2.875-3.49 1.015 1.015 0 1 0-1.239 1.61 8.111 8.111 0 0 1 2.297 2.788 1.016 1.016 0 0 0 1.817-.908Z" fill="#009FE3"/></svg>