<svg xmlns="http://www.w3.org/2000/svg" width="694" height="555"><defs><clipPath id="a"><path transform="translate(-130 -5.01)" fill="#fff" opacity=".302" d="M0 0h694v555H0z"/></clipPath></defs><g transform="translate(130 5.01)" clip-path="url(#a)" fill="#fff"><path d="m389.726 478.379-20.723-62.177a62.662 62.662 0 0 0-48.239-41.83l-59.823-10.886v-4.637a90.089 90.089 0 0 0 26.684-23.695h18.073a26.887 26.887 0 0 0 26.859-26.853V200.886a116.369 116.369 0 1 0-232.738 0v62.66a35.864 35.864 0 0 0 28.538 35.061 89.682 89.682 0 0 0 43.065 60.243v4.636l-59.832 10.885a62.649 62.649 0 0 0-48.23 41.83l-3.581 10.751-30.484-30.488a8.968 8.968 0 0 1 0-12.666l35.362-35.349-66.37-66.363-39.959 39.956a62.66 62.66 0 0 0 0 88.611L79.307 531.631a62.63 62.63 0 0 0 88.333.268l43.6-39.95-13.6-13.57ZM314.65 308.301a8.96 8.96 0 0 1-8.951 8.951h-7.528a88.911 88.911 0 0 0 5.836-18.646 35.456 35.456 0 0 0 10.643-4.234Zm-8.951-29.343V248.13a17.748 17.748 0 0 1 0 30.829Zm-179.029 0a17.748 17.748 0 0 1 0-30.829Zm0-60.172v10.223a35.5 35.5 0 0 0-8.951 3.706v-31.829a98.466 98.466 0 1 1 196.932 0v31.831a35.18 35.18 0 0 0-8.951-3.706v-10.225h-8.953a98.488 98.488 0 0 1-70.081-29.03l-10.482-10.482-10.482 10.482a98.488 98.488 0 0 1-70.081 29.03Zm17.9 62.66v-45.1a116.055 116.055 0 0 0 71.612-31.813 116.007 116.007 0 0 0 71.612 31.813v45.1a71.073 71.073 0 0 1-9.685 35.806h-61.925v17.9h47.21a71.5 71.5 0 0 1-118.822-53.709Zm98.466 85.388v.421l-26.854 26.854-26.852-26.853v-.421a89.441 89.441 0 0 0 53.709 0Zm-162.7 55.025a44.773 44.773 0 0 1 34.454-29.889l62.567-11.368 38.822 38.822 38.814-38.814 62.564 11.37a44.757 44.757 0 0 1 34.454 29.889l12.881 38.608h-185.15l-34.865-34.867-38.742 35.045a9.143 9.143 0 0 1-12.657 0l-19.55-19.55ZM-1.721 307.397l41.051 41.051-9.721 9.721-41.052-41.05Zm156.963 211.595a44.767 44.767 0 0 1-63.3-.018l-120.974-120.97a44.767 44.767 0 0 1 0-63.3l4.923-4.923 41.051 41.055-.322.322a26.9 26.9 0 0 0 0 37.981l64.191 64.191a26.714 26.714 0 0 0 18.995 7.868 26.356 26.356 0 0 0 18.664-7.555l.671-.6 41.239 41.243Zm18.35-16.829-41.15-41.15 11.825-10.688 41.078 41.078ZM466.825-5H341.504a26.887 26.887 0 0 0-26.854 26.854v71.612a26.887 26.887 0 0 0 26.854 26.854h23.909l-9.256 53.986 86.382-53.986h24.285a26.887 26.887 0 0 0 26.854-26.854V21.854A26.887 26.887 0 0 0 466.825-5Zm8.952 98.466a8.966 8.966 0 0 1-8.952 8.951h-29.421l-56.851 35.528 6.1-35.528h-45.149a8.966 8.966 0 0 1-8.951-8.951V21.854a8.966 8.966 0 0 1 8.951-8.954h125.32a8.966 8.966 0 0 1 8.952 8.951Z"/><path d="M350.456 30.806h107.417v17.903H350.456zm0 35.806h71.612v17.903h-71.612zm89.515 0h17.903v17.903h-17.903zM216.184 21.854A250.481 250.481 0 0 0-27.717 215.608L-44.68 187.33l-15.347 9.211 31.46 52.429 52.429-31.464-9.211-15.352-24.259 14.555A232.8 232.8 0 0 1 285.146 50.14l5.3-17.1a250.478 250.478 0 0 0-74.262-11.186ZM489.33 193.203l-52.427-31.464-31.455 52.438 15.352 9.211 15.665-26.111a232.937 232.937 0 0 1-39.452 221.754l13.9 11.279a250.674 250.674 0 0 0 42.9-237.536l26.308 15.781Z"/></g></svg>