<svg xmlns="http://www.w3.org/2000/svg" width="19.571" height="19.571"><path d="M10.067 16.901a8.529 8.529 0 1 1 6.835-6.831 5.049 5.049 0 1 1-6.835 6.831Zm.035-2.381a4.419 4.419 0 1 0 4.419-4.418 4.424 4.424 0 0 0-4.419 4.417Zm-1.9 1.869V13.21a14.822 14.822 0 0 1-3.082-.37c.678 1.988 1.8 3.356 3.087 3.545Zm.632-3.182v3.178a2.3 2.3 0 0 0 .87-.331 4.992 4.992 0 0 1-.049-2.885c-.269.016-.543.034-.817.037Zm-2.489 2.9a7.725 7.725 0 0 1-1.953-3.46 7.716 7.716 0 0 1-3.46-1.953 7.922 7.922 0 0 0 5.417 5.413Zm2.489-3.529c.355-.007.7-.027 1.048-.057a5.046 5.046 0 0 1 2.632-2.632c.031-.347.049-.7.058-1.048H8.835Zm-3.926-.446a14.1 14.1 0 0 0 3.294.446v-3.74H4.461a14.11 14.11 0 0 0 .452 3.294Zm-.709-.212a14.883 14.883 0 0 1-.37-3.082H.656c.192 1.289 1.559 2.411 3.547 3.081ZM16.05 9.709a2.465 2.465 0 0 0 .331-.87h-3.179c0 .277-.015.546-.039.82a5.006 5.006 0 0 1 2.886.05Zm-2.844-1.5h3.18c-.193-1.291-1.561-2.411-3.549-3.082a14.812 14.812 0 0 1 .374 3.078Zm-4.372 0h3.74a13.874 13.874 0 0 0-.446-3.294 14.1 14.1 0 0 0-3.294-.446ZM4.908 4.915a14.109 14.109 0 0 0-.447 3.294h3.741v-3.74a14.1 14.1 0 0 0-3.289.442ZM.655 8.209h3.174a14.868 14.868 0 0 1 .374-3.082C2.219 5.797.852 6.919.659 8.205Zm11.989-3.806a7.718 7.718 0 0 1 3.46 1.953A7.907 7.907 0 0 0 10.691.943a7.731 7.731 0 0 1 1.957 3.456ZM.936 6.352a7.73 7.73 0 0 1 3.46-1.953A7.718 7.718 0 0 1 6.35.939 7.915 7.915 0 0 0 .94 6.348Zm7.9-2.516a14.763 14.763 0 0 1 3.082.374c-.674-1.988-1.8-3.356-3.082-3.548Zm-3.714.374a14.822 14.822 0 0 1 3.082-.37V.662C6.92.85 5.798 2.215 5.124 4.206Zm7.186 13.153v-4.1h.316v-.317a1.9 1.9 0 0 1 3.791 0v.317h.316v4.1Zm.635-.628h3.155v-2.839h-3.155Zm.312-3.792v.317h2.531v-.317a1.264 1.264 0 0 0-2.527 0Zm1.9 3.155v-.63h.631v.63Zm-.95 0v-.63h.63v.63Zm-.95 0v-.63h.63v.63Z" fill="#00a0e1"/></svg>