<svg height="512" width="512" xmlns="http://www.w3.org/2000/svg"><path d="M412.963 141.985c-10.756-13.062-26.628-20.552-43.548-20.551-31.107 0-56.415 25.309-56.415 56.416v25.584h-35.039V39.065c0-4.143-3.357-7.5-7.5-7.5h-30a7.499 7.499 0 0 0-7.5 7.5v24.988c0 4.143 3.357 7.5 7.5 7.5s7.5-3.357 7.5-7.5V46.565h15v164.369c0 4.143 3.357 7.5 7.5 7.5h76.88a7.502 7.502 0 0 0 6.965-4.717l13.447-33.651 13.929 5.566-15.013 37.568a7.5 7.5 0 0 0 0 5.566l14.974 37.47-13.929 5.566-13.447-33.652a7.5 7.5 0 0 0-6.965-4.717H164.621a7.502 7.502 0 0 0-6.965 4.717l-13.447 33.652-13.929-5.566 15.013-37.568a7.5 7.5 0 0 0 0-5.566l-14.974-37.47 13.929-5.566 13.447 33.651a7.5 7.5 0 0 0 6.965 4.717h75.802c4.143 0 7.5-3.357 7.5-7.5V99.133c0-4.143-3.357-7.5-7.5-7.5s-7.5 3.357-7.5 7.5v104.302h-33.961v-25.584c0-31.107-25.309-56.416-56.415-56.416h-.004c-16.917 0-32.789 7.491-43.544 20.551C35.172 219.536 0 317.572 0 418.034c.001 34.408 27.994 62.4 62.401 62.4h6.424c4.143 0 7.5-3.357 7.5-7.5s-3.357-7.5-7.5-7.5h-6.424c-26.137 0-47.4-21.264-47.401-47.4 0-96.991 33.957-191.641 95.616-266.514 7.896-9.588 19.547-15.086 31.966-15.086h.003c22.837 0 41.416 18.579 41.416 41.416v25.584H169.74l-14.346-35.899a7.499 7.499 0 0 0-9.748-4.181l-27.857 11.133a7.5 7.5 0 0 0-4.182 9.748l16.645 41.651-16.684 41.75a7.5 7.5 0 0 0 4.182 9.748l27.857 11.133a7.502 7.502 0 0 0 9.748-4.181l14.346-35.9h17.165l13.481 26.963a72.857 72.857 0 0 1 7.654 32.423v101.114c0 31.154-25.346 56.5-56.5 56.5h-47.33c-4.143 0-7.5 3.357-7.5 7.5s3.357 7.5 7.5 7.5h47.33c39.425 0 71.5-32.075 71.5-71.5V307.82a87.932 87.932 0 0 0-9.238-39.131l-10.127-20.255h104.73l-10.127 20.255A87.942 87.942 0 0 0 289 307.82v8.445c0 4.143 3.357 7.5 7.5 7.5s7.5-3.357 7.5-7.5v-8.445a72.876 72.876 0 0 1 7.653-32.423l13.482-26.963h17.086l14.346 35.9a7.499 7.499 0 0 0 9.748 4.181l27.857-11.133a7.5 7.5 0 0 0 4.182-9.748l-16.645-41.651 16.684-41.75a7.5 7.5 0 0 0-4.182-9.748l-27.857-11.133a7.502 7.502 0 0 0-9.748 4.181l-14.346 35.899H328v-25.584c0-22.837 18.579-41.416 41.416-41.416 12.42-.001 24.072 5.498 31.969 15.086C463.043 226.393 497 321.042 497 418.034c0 26.137-21.265 47.4-47.401 47.4H360.5c-31.154 0-56.5-25.346-56.5-56.5v-58.512c0-4.143-3.357-7.5-7.5-7.5s-7.5 3.357-7.5 7.5v58.512c0 39.425 32.075 71.5 71.5 71.5h89.098c34.408 0 62.401-27.993 62.401-62.4.001-100.463-35.171-198.499-99.036-276.049z"/><path d="M153.328 351.672h-13.617a25.565 25.565 0 0 0-1.917-4.611l6.557-6.557a7.5 7.5 0 0 0-10.607-10.607l-6.557 6.557a25.608 25.608 0 0 0-4.611-1.917V320.92c0-4.143-3.357-7.5-7.5-7.5s-7.5 3.357-7.5 7.5v13.617a25.638 25.638 0 0 0-4.611 1.917l-17.623-17.622a7.5 7.5 0 0 0-10.606.001 7.498 7.498 0 0 0 .001 10.606l17.622 17.621a25.608 25.608 0 0 0-1.917 4.611H76.825c-4.143 0-7.5 3.357-7.5 7.5s3.357 7.5 7.5 7.5h13.617a25.594 25.594 0 0 0 1.916 4.61l-6.557 6.557a7.5 7.5 0 1 0 10.608 10.607l6.557-6.557a25.594 25.594 0 0 0 4.61 1.916v13.617c0 4.143 3.357 7.5 7.5 7.5s7.5-3.357 7.5-7.5v-13.617a25.536 25.536 0 0 0 4.611-1.917l17.621 17.622a7.476 7.476 0 0 0 5.304 2.197 7.498 7.498 0 0 0 5.304-12.802l-17.622-17.623a25.608 25.608 0 0 0 1.917-4.611h13.617a7.499 7.499 0 1 0 0-14.998zm-38.252 18.251c-5.928 0-10.751-4.823-10.751-10.751 0-5.929 4.823-10.752 10.751-10.752 5.929 0 10.752 4.823 10.752 10.752 0 5.928-4.823 10.751-10.752 10.751z"/><ellipse cx="49.946" cy="401.131" rx="7.495" ry="7.498"/><ellipse cx="46.077" cy="352.831" rx="7.495" ry="7.498"/><ellipse cx="83.087" cy="284.831" rx="7.495" ry="7.498"/><ellipse cx="177.086" cy="314.831" rx="7.495" ry="7.498"/><ellipse cx="183.082" cy="381.835" rx="7.495" ry="7.498"/><ellipse cx="85.672" cy="434.871" rx="7.495" ry="7.498"/><path d="M144.082 422.337c-4.14 0-7.495 3.357-7.495 7.498s3.356 7.498 7.495 7.498 7.495-3.357 7.495-7.498-3.356-7.498-7.495-7.498zm207.083-63.159c0 4.143 3.357 7.5 7.5 7.5h13.617a25.638 25.638 0 0 0 1.917 4.611l-17.622 17.623a7.498 7.498 0 0 0 5.304 12.802c1.92 0 3.839-.732 5.304-2.197l17.621-17.622a25.608 25.608 0 0 0 4.611 1.917v13.617c0 4.143 3.357 7.5 7.5 7.5s7.5-3.357 7.5-7.5v-13.617a25.594 25.594 0 0 0 4.61-1.916l6.557 6.557c1.465 1.464 3.385 2.196 5.304 2.196s3.839-.732 5.304-2.196a7.5 7.5 0 0 0 0-10.607l-6.557-6.557a25.594 25.594 0 0 0 1.916-4.61h13.617c4.143 0 7.5-3.357 7.5-7.5s-3.357-7.5-7.5-7.5h-13.617a25.536 25.536 0 0 0-1.917-4.611l17.622-17.621a7.498 7.498 0 0 0 .001-10.606 7.5 7.5 0 0 0-10.606-.001l-17.623 17.622a25.608 25.608 0 0 0-4.611-1.917v-13.617c0-4.143-3.357-7.5-7.5-7.5s-7.5 3.357-7.5 7.5v13.617a25.565 25.565 0 0 0-4.611 1.917l-6.557-6.557a7.5 7.5 0 0 0-10.607 10.607l6.557 6.557a25.608 25.608 0 0 0-1.917 4.611h-13.617a7.497 7.497 0 0 0-7.5 7.498zm35 0c0-5.929 4.823-10.752 10.752-10.752 5.928 0 10.751 4.823 10.751 10.752 0 5.928-4.823 10.751-10.751 10.751s-10.752-4.823-10.752-10.751z"/><ellipse cx="462.047" cy="401.137" rx="7.495" ry="7.498"/><ellipse cx="465.916" cy="352.838" rx="7.495" ry="7.498"/><ellipse cx="428.907" cy="284.838" rx="7.495" ry="7.498"/><ellipse cx="334.907" cy="314.838" rx="7.495" ry="7.498"/><ellipse cx="328.911" cy="381.841" rx="7.495" ry="7.498"/><ellipse cx="426.321" cy="434.878" rx="7.495" ry="7.498"/><path d="M367.911 422.343c4.14 0 7.495 3.357 7.495 7.498s-3.356 7.498-7.495 7.498-7.495-3.357-7.495-7.498 3.356-7.498 7.495-7.498z"/></svg>