<svg width="90" height="90" viewBox="0 0 90 90" fill="none" xmlns="http://www.w3.org/2000/svg">
<path d="M28.0125 80.625C15.75 74.775 6.975 62.85 5.625 48.75H0C1.875 71.85 21.225 90 44.8125 90L47.2875 89.8875L33 75.6L28.0125 80.625ZM31.35 56.1C30.6375 56.1 30 55.9875 29.4 55.8C28.8399 55.614 28.3277 55.3067 27.9 54.9C27.4875 54.525 27.15 54.075 26.925 53.5125C26.7 52.9875 26.5875 52.3875 26.5875 51.75H21.7125C21.7125 53.1 21.975 54.375 22.5 55.3125C23.025 56.25 23.7375 57.1875 24.6 57.9C25.5 58.575 26.5125 59.1 27.675 59.4375C28.8 59.8125 30 60 31.275 60C32.6625 60 33.975 59.8125 35.1375 59.4375C36.3375 59.0625 37.3875 58.5 38.25 57.7875C39.1125 57.075 39.825 56.25 40.3125 55.0875C40.8 54 41.0625 52.8 41.0625 51.45C41.0625 50.7375 40.9875 50.025 40.8 49.35C40.6125 48.75 40.35 48.0375 39.9375 47.4375C39.5625 46.875 39.0375 46.3125 38.4375 45.825C37.8 45.3375 37.05 45 36.15 44.6625C37.5089 44.064 38.6673 43.0878 39.4875 41.85C39.8625 41.25 40.125 40.725 40.3125 40.125C40.5 39.525 40.575 38.925 40.575 38.325C40.575 36.975 40.35 35.775 39.9 34.725C39.375 33.75 38.8125 32.8125 37.9875 32.1375C37.2375 31.425 36.225 30.9 35.1 30.525C33.9375 30.1875 32.6625 30 31.275 30C30 30 28.6875 30.1875 27.525 30.6C26.4 31.0125 25.3875 31.575 24.5625 32.2875C23.775 33 23.1375 33.75 22.65 34.8C22.2 35.775 21.975 36.825 21.975 37.9875H26.85C26.85 37.35 26.9625 36.7875 27.1875 36.3C27.3993 35.8094 27.7199 35.3735 28.125 35.025C28.5375 34.6875 28.9875 34.3875 29.55 34.2C30.1125 34.0125 30.675 33.9 31.35 33.9C32.85 33.9 33.975 34.275 34.6875 35.0625C35.4 35.8125 35.775 36.9 35.775 38.2875C35.775 38.9625 35.625 39.5625 35.475 40.125C35.2885 40.6612 34.9654 41.1394 34.5375 41.5125C34.125 41.8875 33.6 42.1875 33 42.4125C32.4 42.6375 31.65 42.75 30.825 42.75H27.9375V46.6125H30.825C31.65 46.6125 32.4 46.6875 33.075 46.875C33.75 47.0625 34.3125 47.3625 34.7625 47.7375C35.2125 48.15 35.625 48.6375 35.85 49.2375C36.1125 49.8375 36.225 50.625 36.225 51.375C36.225 52.9125 35.775 54.075 34.9125 54.8625C34.05 55.725 32.85 56.1 31.35 56.1ZM63.4125 33.9C62.2125 32.6625 60.7875 31.6875 59.1375 31.0125C57.525 30.3375 55.6875 30 53.6625 30H44.8125V60H53.4375C55.5 60 57.4125 59.6625 59.1 58.9875C60.7875 58.3125 62.25 57.375 63.45 56.1375C64.65 54.9 65.625 53.4 66.225 51.675C66.8625 49.9125 67.2 47.9625 67.2 45.7875V44.2875C67.2 42.1125 66.8625 40.1625 66.225 38.4C65.625 36.6375 64.6125 35.1375 63.4125 33.9ZM61.875 45.75C61.875 47.325 61.7625 48.75 61.425 49.9875C61.05 51.225 60.525 52.3125 59.8125 53.175C59.1 54.0375 58.125 54.7125 57.15 55.1625C56.0625 55.6125 54.825 55.8375 53.4375 55.8375H50.025V34.2H53.6625C56.3625 34.2 58.425 35.0625 59.8125 36.7875C61.2375 38.5125 61.875 40.9875 61.875 44.25V45.75ZM44.8125 0L42.3375 0.1125L56.625 14.4L61.6125 9.375C73.875 15.225 82.65 27.1125 83.9625 41.25H89.5875C87.7125 18.15 68.4 0 44.8125 0Z" fill="white"/>
</svg>
