<svg width="20" height="20" viewBox="0 0 20 20" fill="none" xmlns="http://www.w3.org/2000/svg">
<path d="M9.99999 0.666687L10.2481 0.232565L9.99999 0.0908114L9.75192 0.232565L9.99999 0.666687ZM0.666656 6.00002L0.418587 5.5659L0.166656 5.70986V6.00002H0.666656ZM19.3333 6.00002H19.8333V5.70986L19.5814 5.5659L19.3333 6.00002ZM9.99999 19.3334L9.86263 19.8141L9.99999 19.8534L10.1374 19.8141L9.99999 19.3334ZM9.75192 0.232565L0.418587 5.5659L0.914726 6.43414L10.2481 1.10081L9.75192 0.232565ZM0.166656 6.00002V6.95988H1.16666V6.00002H0.166656ZM19.8333 6.95988V6.00002H18.8333V6.95988H19.8333ZM19.5814 5.5659L10.2481 0.232565L9.75192 1.10081L19.0853 6.43414L19.5814 5.5659ZM10.1374 19.8141C15.8765 18.1744 19.8333 12.9287 19.8333 6.95988H18.8333C18.8333 12.4822 15.1725 17.3355 9.86263 18.8526L10.1374 19.8141ZM0.166656 6.95988C0.166656 12.9287 4.12346 18.1744 9.86263 19.8141L10.1374 18.8526C4.82749 17.3355 1.16666 12.4822 1.16666 6.95988H0.166656ZM5.64644 6.35357L13.6464 14.3536L14.3535 13.6465L6.35354 5.64647L5.64644 6.35357ZM6.35354 14.3536L14.3535 6.35357L13.6464 5.64647L5.64644 13.6465L6.35354 14.3536Z" fill="#02508F"/>
</svg>
