<svg width="15" height="13" viewBox="0 0 15 13" fill="none" xmlns="http://www.w3.org/2000/svg">
<path d="M1.43333 6.49999L0.969096 6.31429C0.921414 6.4335 0.921414 6.56648 0.969096 6.68568L1.43333 6.49999ZM13.5667 6.49999L14.0309 6.68569C14.0786 6.56648 14.0786 6.4335 14.0309 6.31429L13.5667 6.49999ZM7.49999 10.3333C5.51931 10.3333 4.12778 9.34826 3.21331 8.33217C2.75572 7.82374 2.42395 7.31362 2.20689 6.93057C2.09864 6.73954 2.0197 6.5815 1.96854 6.47298C1.94298 6.41876 1.92441 6.37702 1.91264 6.34985C1.90675 6.33627 1.90257 6.32634 1.90007 6.32032C1.89881 6.31732 1.89798 6.31529 1.89757 6.31427C1.89736 6.31376 1.89726 6.31351 1.89726 6.31351C1.89726 6.31351 1.89729 6.31358 1.89734 6.31371C1.89736 6.31377 1.89742 6.31392 1.89744 6.31395C1.8975 6.31412 1.89757 6.31429 1.43333 6.49999C0.969096 6.68568 0.96918 6.6859 0.969272 6.68612C0.969312 6.68622 0.96941 6.68647 0.969489 6.68667C0.969648 6.68706 0.969833 6.68752 0.970045 6.68805C0.97047 6.6891 0.971004 6.69041 0.971646 6.69199C0.972931 6.69514 0.974652 6.69932 0.976812 6.70451C0.981132 6.7149 0.987212 6.7293 0.99508 6.74746C1.01081 6.78376 1.03371 6.83513 1.06401 6.8994C1.12457 7.02785 1.2149 7.20836 1.33686 7.42358C1.58022 7.85303 1.9526 8.42623 2.47001 9.00114C3.50553 10.1517 5.14733 11.3333 7.49999 11.3333V10.3333ZM1.43333 6.49999C1.89757 6.68568 1.8975 6.68586 1.89744 6.68603C1.89742 6.68606 1.89736 6.6862 1.89734 6.68627C1.89729 6.6864 1.89726 6.68646 1.89726 6.68647C1.89726 6.68647 1.89736 6.68621 1.89757 6.68571C1.89798 6.68469 1.89881 6.68266 1.90007 6.67965C1.90257 6.67364 1.90675 6.66371 1.91264 6.65013C1.92441 6.62296 1.94298 6.58122 1.96854 6.527C2.0197 6.41848 2.09864 6.26044 2.20689 6.06941C2.42395 5.68636 2.75572 5.17624 3.21331 4.6678C4.12778 3.65172 5.51931 2.66666 7.49999 2.66666V1.66666C5.14733 1.66666 3.50553 2.84826 2.47001 3.99884C1.9526 4.57374 1.58022 5.14695 1.33686 5.5764C1.2149 5.79162 1.12457 5.97212 1.06401 6.10058C1.03371 6.16485 1.01081 6.21621 0.99508 6.25252C0.987212 6.27068 0.981132 6.28508 0.976812 6.29546C0.974652 6.30065 0.972931 6.30484 0.971646 6.30799C0.971004 6.30957 0.97047 6.31088 0.970045 6.31193C0.969833 6.31246 0.969648 6.31292 0.969489 6.31331C0.96941 6.31351 0.969312 6.31376 0.969272 6.31385C0.96918 6.31408 0.969096 6.31429 1.43333 6.49999ZM7.49999 2.66666C9.48067 2.66666 10.8722 3.65172 11.7867 4.66781C12.2443 5.17624 12.576 5.68636 12.7931 6.06941C12.9014 6.26044 12.9803 6.41848 13.0315 6.527C13.057 6.58122 13.0756 6.62296 13.0874 6.65013C13.0933 6.66371 13.0974 6.67364 13.0999 6.67966C13.1012 6.68266 13.102 6.68469 13.1024 6.68571C13.1026 6.68622 13.1027 6.68647 13.1027 6.68647C13.1027 6.68647 13.1027 6.6864 13.1027 6.68627C13.1026 6.68621 13.1026 6.68606 13.1026 6.68603C13.1025 6.68586 13.1024 6.68569 13.5667 6.49999C14.0309 6.31429 14.0308 6.31408 14.0307 6.31385C14.0307 6.31375 14.0306 6.31351 14.0305 6.31331C14.0304 6.31292 14.0302 6.31246 14.03 6.31193C14.0295 6.31088 14.029 6.30956 14.0284 6.30799C14.0271 6.30484 14.0253 6.30065 14.0232 6.29546C14.0189 6.28508 14.0128 6.27068 14.0049 6.25252C13.9892 6.21621 13.9663 6.16485 13.936 6.10058C13.8754 5.97212 13.7851 5.79162 13.6631 5.5764C13.4198 5.14695 13.0474 4.57374 12.53 3.99884C11.4944 2.84826 9.85264 1.66666 7.49999 1.66666V2.66666ZM13.5667 6.49999C13.1024 6.31429 13.1025 6.31411 13.1026 6.31395C13.1026 6.31392 13.1026 6.31377 13.1027 6.31371C13.1027 6.31358 13.1027 6.31351 13.1027 6.31351C13.1027 6.31351 13.1026 6.31376 13.1024 6.31427C13.102 6.31529 13.1012 6.31731 13.0999 6.32032C13.0974 6.32634 13.0933 6.33627 13.0874 6.34985C13.0756 6.37702 13.057 6.41876 13.0315 6.47298C12.9803 6.5815 12.9014 6.73954 12.7931 6.93056C12.576 7.31361 12.2443 7.82374 11.7867 8.33217C10.8722 9.34826 9.48067 10.3333 7.49999 10.3333V11.3333C9.85264 11.3333 11.4944 10.1517 12.53 9.00114C13.0474 8.42624 13.4198 7.85303 13.6631 7.42358C13.7851 7.20836 13.8754 7.02786 13.936 6.8994C13.9663 6.83513 13.9892 6.78377 14.0049 6.74746C14.0128 6.7293 14.0189 6.7149 14.0232 6.70452C14.0253 6.69933 14.0271 6.69514 14.0284 6.69199C14.029 6.69041 14.0295 6.6891 14.03 6.68805C14.0302 6.68752 14.0304 6.68706 14.0305 6.68667C14.0306 6.68647 14.0307 6.68622 14.0307 6.68613C14.0308 6.6859 14.0309 6.68569 13.5667 6.49999ZM7.5 7.73332C6.81885 7.73332 6.26667 7.18114 6.26667 6.49999H5.26667C5.26667 7.73342 6.26656 8.73332 7.5 8.73332V7.73332ZM8.73333 6.49999C8.73333 7.18114 8.18115 7.73332 7.5 7.73332V8.73332C8.73344 8.73332 9.73333 7.73342 9.73333 6.49999H8.73333ZM7.5 5.26666C8.18115 5.26666 8.73333 5.81884 8.73333 6.49999H9.73333C9.73333 5.26655 8.73344 4.26666 7.5 4.26666V5.26666ZM7.5 4.26666C6.26656 4.26666 5.26667 5.26655 5.26667 6.49999H6.26667C6.26667 5.81884 6.81885 5.26666 7.5 5.26666V4.26666Z" fill="#BFBFBF"/>
</svg>
