<svg width="90" height="90" fill="none" xmlns="http://www.w3.org/2000/svg"><path d="M28.012 80.625C15.75 74.775 6.976 62.85 5.625 48.75H0C1.875 71.85 21.225 90 44.813 90l2.474-.112L33 75.6l-4.988 5.025ZM31.35 56.1c-.713 0-1.35-.113-1.95-.3a4.011 4.011 0 0 1-1.5-.9 3.717 3.717 0 0 1-.975-1.387 4.475 4.475 0 0 1-.338-1.763h-4.875c0 1.35.263 2.625.788 3.563.525.937 1.238 1.874 2.1 2.587.9.675 1.912 1.2 3.075 1.538a11.34 11.34 0 0 0 3.6.562c1.388 0 2.7-.188 3.863-.563 1.2-.374 2.25-.937 3.112-1.65.862-.712 1.575-1.537 2.063-2.7.487-1.087.75-2.287.75-3.637 0-.713-.076-1.425-.263-2.1-.188-.6-.45-1.313-.862-1.913a7.523 7.523 0 0 0-1.5-1.612c-.638-.488-1.388-.825-2.288-1.163a7.752 7.752 0 0 0 3.337-2.812c.375-.6.638-1.125.825-1.725.188-.6.263-1.2.263-1.8 0-1.35-.225-2.55-.675-3.6-.525-.975-1.087-1.913-1.913-2.587-.75-.713-1.762-1.238-2.887-1.613A13.667 13.667 0 0 0 31.275 30c-1.275 0-2.587.188-3.75.6-1.125.412-2.137.975-2.962 1.688-.788.712-1.425 1.462-1.913 2.512-.45.975-.675 2.025-.675 3.188h4.875c0-.638.112-1.2.337-1.688.212-.49.533-.926.938-1.275.413-.337.863-.637 1.425-.825a5.488 5.488 0 0 1 1.8-.3c1.5 0 2.625.375 3.337 1.163.713.75 1.088 1.837 1.088 3.224 0 .675-.15 1.276-.3 1.838a3.263 3.263 0 0 1-.938 1.388c-.412.375-.937.675-1.537.9-.6.225-1.35.337-2.175.337h-2.887v3.862h2.887c.825 0 1.575.075 2.25.263a4.486 4.486 0 0 1 1.688.862c.45.413.862.9 1.087 1.5.262.6.375 1.388.375 2.138 0 1.538-.45 2.7-1.313 3.487-.862.863-2.062 1.238-3.562 1.238Zm32.063-22.2a12.489 12.489 0 0 0-4.275-2.887C57.525 30.337 55.688 30 53.663 30h-8.85v30h8.624c2.063 0 3.976-.337 5.663-1.013 1.688-.675 3.15-1.612 4.35-2.85a12.143 12.143 0 0 0 2.775-4.462c.638-1.762.975-3.712.975-5.887v-1.5c0-2.175-.338-4.125-.975-5.888-.6-1.762-1.612-3.262-2.812-4.5Zm-1.538 11.85c0 1.575-.112 3-.45 4.237-.375 1.238-.9 2.325-1.612 3.188-.713.863-1.688 1.538-2.663 1.988-1.087.45-2.325.675-3.712.675h-3.413V34.2h3.638c2.7 0 4.762.862 6.15 2.587 1.424 1.726 2.062 4.2 2.062 7.463v1.5ZM44.812 0l-2.474.113L56.624 14.4l4.987-5.025c12.263 5.85 21.038 17.738 22.35 31.875h5.626C87.713 18.15 68.4 0 44.813 0Z" fill="#fff"/></svg>