<svg width="20" height="20" fill="none" xmlns="http://www.w3.org/2000/svg"><path d="m10 .667.248-.434L10 .09l-.248.142.248.434ZM.667 6l-.248-.434-.252.144V6h.5Zm18.666 0h.5v-.29l-.252-.144-.248.434ZM10 19.333l-.137.481.137.04.137-.04-.137-.48ZM9.752.233.419 5.566l.496.868 9.333-5.333-.496-.868ZM.167 6v.96h1V6h-1Zm19.666.96V6h-1v.96h1Zm-.252-1.394L10.248.233l-.496.868 9.333 5.333.496-.868Zm-9.444 14.248A13.369 13.369 0 0 0 19.833 6.96h-1a12.37 12.37 0 0 1-8.97 11.893l.274.961ZM.167 6.96a13.369 13.369 0 0 0 9.696 12.854l.274-.961A12.369 12.369 0 0 1 1.167 6.96h-1Zm5.48-.606 8 8 .707-.707-8-8-.708.707Zm.707 8 8-8-.708-.708-8 8 .708.708Z" fill="#02508F"/></svg>