<svg width="15" height="13" fill="none" xmlns="http://www.w3.org/2000/svg"><path d="M1.433 6.5.97 6.314a.5.5 0 0 0 0 .372l.464-.186Zm12.134 0 .464.186a.5.5 0 0 0 0-.372l-.464.186ZM7.5 10.333c-1.98 0-3.372-.985-4.287-2a8.052 8.052 0 0 1-1.244-1.86 4.31 4.31 0 0 1-.071-.159l-.465.186a51.18 51.18 0 0 0-.464.186l.001.002.002.004a1.959 1.959 0 0 0 .023.055l.069.152A9.053 9.053 0 0 0 2.47 9.001c1.036 1.15 2.677 2.332 5.03 2.332v-1ZM1.433 6.5l.464.186a.5.5 0 0 1 .016-.036 6.944 6.944 0 0 1 .294-.58 8.052 8.052 0 0 1 1.006-1.402C4.128 3.652 5.52 2.667 7.5 2.667v-1c-2.353 0-3.994 1.181-5.03 2.332A9.052 9.052 0 0 0 1.064 6.1a5.296 5.296 0 0 0-.092.207l-.002.004v.001l.463.187ZM7.5 2.667c1.98 0 3.372.985 4.287 2a8.053 8.053 0 0 1 1.244 1.86 2.4 2.4 0 0 1 .056.123l.013.03a.177.177 0 0 1 .002.006l.465-.186.464-.186-.001-.002-.002-.004c0-.003-.003-.007-.005-.013a7.945 7.945 0 0 0-.36-.72A9.049 9.049 0 0 0 12.53 4C11.494 2.85 9.853 1.668 7.5 1.668v1ZM13.567 6.5a63.296 63.296 0 0 1-.464-.186.187.187 0 0 1-.003.006l-.013.03a6.942 6.942 0 0 1-.294.58 8.053 8.053 0 0 1-1.006 1.402c-.915 1.016-2.306 2.001-4.287 2.001v1c2.353 0 3.994-1.181 5.03-2.332A9.049 9.049 0 0 0 13.936 6.9a5.197 5.197 0 0 0 .087-.194l.005-.013.002-.004v-.001l-.463-.187ZM7.5 7.733A1.233 1.233 0 0 1 6.267 6.5h-1c0 1.233 1 2.233 2.233 2.233v-1ZM8.733 6.5c0 .681-.552 1.233-1.233 1.233v1c1.233 0 2.233-1 2.233-2.233h-1ZM7.5 5.267c.681 0 1.233.552 1.233 1.233h1c0-1.233-1-2.233-2.233-2.233v1Zm0-1c-1.233 0-2.233 1-2.233 2.233h1c0-.681.552-1.233 1.233-1.233v-1Z" fill="#BFBFBF"/></svg>