<svg width="15" height="15" fill="none" xmlns="http://www.w3.org/2000/svg"><g clip-path="url(#a)"><path d="M7.716 12.954a6.537 6.537 0 1 1 5.238-5.236 3.87 3.87 0 1 1-5.238 5.236Zm.027-1.825a3.387 3.387 0 1 0 6.774.001 3.387 3.387 0 0 0-6.774-.001ZM6.286 12.56v-2.436a11.361 11.361 0 0 1-2.362-.284c.52 1.524 1.38 2.572 2.366 2.717l-.004.003Zm.485-2.439v2.436c.237-.038.464-.124.667-.253a3.826 3.826 0 0 1-.038-2.212c-.206.013-.416.026-.626.029H6.77Zm-1.908 2.223a5.92 5.92 0 0 1-1.497-2.652A5.914 5.914 0 0 1 .714 8.196a6.072 6.072 0 0 0 4.152 4.15h-.003ZM6.771 9.64c.272-.005.536-.02.803-.043a3.867 3.867 0 0 1 2.017-2.018c.024-.266.038-.536.045-.803H6.772L6.77 9.64ZM3.76 9.3a10.82 10.82 0 0 0 2.525.341V6.774H3.42c.016.852.132 1.7.347 2.525h-.004Zm-.543-.163a11.407 11.407 0 0 1-.283-2.362H.503c.147.988 1.195 1.848 2.718 2.361l-.003.001ZM12.3 7.442c.127-.204.213-.43.254-.666h-2.436c0 .212-.012.418-.03.628a3.839 3.839 0 0 1 2.212.038Zm-2.18-1.15h2.438c-.148-.989-1.196-1.847-2.72-2.361.178.774.274 1.564.286 2.359l-.003.003Zm-3.35 0h2.866c-.012-.852-.127-1.7-.342-2.524a10.807 10.807 0 0 0-2.524-.342v2.867ZM3.76 3.768a10.813 10.813 0 0 0-.342 2.525h2.867V3.425a10.83 10.83 0 0 0-2.52.339l-.004.003ZM.503 6.292h2.433c.013-.796.109-1.587.286-2.362C1.701 4.443.653 5.303.505 6.289l-.003.003Zm9.189-2.917a5.91 5.91 0 0 1 2.652 1.497 6.059 6.059 0 0 0-4.15-4.15 5.925 5.925 0 0 1 1.5 2.65l-.003.003ZM.717 4.868A5.924 5.924 0 0 1 3.37 3.372c.26-1 .776-1.914 1.498-2.652A6.066 6.066 0 0 0 .72 4.865l-.003.003ZM6.772 2.94c.796.012 1.587.108 2.362.287C8.618 1.703 7.754.655 6.772.507V2.94Zm-2.846.287a11.36 11.36 0 0 1 2.362-.284V.507c-.984.144-1.844 1.19-2.36 2.717l-.002.003Zm5.507 10.08v-3.142h.243v-.243a1.456 1.456 0 0 1 2.905 0v.243h.242v3.143h-3.39Zm.487-.48h2.418V10.65H9.92v2.176Zm.24-2.907v.243h1.939V9.92a.969.969 0 0 0-1.937 0h-.003Zm1.455 2.418v-.483h.484v.483h-.484Zm-.728 0v-.483h.483v.483h-.483Zm-.728 0v-.483h.483v.483h-.483Z" fill="#fff"/></g><defs><clipPath id="a"><path fill="#fff" d="M0 0h15v15H0z"/></clipPath></defs></svg>