<svg xmlns="http://www.w3.org/2000/svg" width="27" height="26.999"><path d="M6.012 27a1.584 1.584 0 0 1-1.582-1.581V20.9a.528.528 0 1 1 1.055 0v4.518a.527.527 0 0 0 .527.526h19.407a.527.527 0 0 0 .527-.526V5.853h-3.217a1.584 1.584 0 0 1-1.582-1.582V1.054H6.012a.528.528 0 0 0-.527.527v.687a6.932 6.932 0 0 1 1.481-.159.528.528 0 0 1 .527.527v6.439a.528.528 0 0 1-.527.527H.527A.528.528 0 0 1 0 9.075a6.978 6.978 0 0 1 4.43-6.488V1.582A1.584 1.584 0 0 1 6.012.001h15.662a.527.527 0 0 1 .374.154l4.8 4.8a.527.527 0 0 1 .154.374v20.092a1.583 1.583 0 0 1-1.581 1.581ZM1.078 8.548h5.36v-5.36a5.921 5.921 0 0 0-5.36 5.36Zm21.123-4.277a.528.528 0 0 0 .527.527H25.2l-3-3ZM8.116 23.305a1.582 1.582 0 0 1 2.263-1.428l1.935-1.935a1.567 1.567 0 0 1-.146-.661 1.582 1.582 0 1 1 3.056.575l2.017 2.017a1.585 1.585 0 0 1 1.366.007l3.038-3.037a1.566 1.566 0 0 1-.125-.617 1.585 1.585 0 1 1 .838 1.4l-3.01 3.01a1.582 1.582 0 1 1-2.857-.015l-1.96-1.961a1.58 1.58 0 0 1-1.482.043l-1.924 1.924a1.566 1.566 0 0 1 .156.683 1.582 1.582 0 0 1-3.164 0Zm1.055 0a.528.528 0 0 0 1.055 0 .522.522 0 0 0-.148-.365l-.008-.007-.006-.007a.526.526 0 0 0-.892.38Zm8.218 0a.527.527 0 1 0 .527-.527.528.528 0 0 0-.527.522Zm-4.166-4.023a.527.527 0 1 0 .527-.527.528.528 0 0 0-.528.525Zm9.352-1.056a.527.527 0 1 0 .527-.527.528.528 0 0 0-.528.526Zm-17.99 1.132a.527.527 0 1 1 .745 0 .526.526 0 0 1-.745 0Zm-2.7-8.393a.527.527 0 0 1 .527-.526h5.911V4.528a.527.527 0 0 1 .527-.527 6.966 6.966 0 1 1-6.966 6.965Zm6.966 5.911a5.908 5.908 0 0 0 4.534-9.7l-4.162 4.161a.524.524 0 0 1-.373.154H2.962a5.918 5.918 0 0 0 5.893 5.384Zm.527-7.184 3.261-3.261a5.88 5.88 0 0 0-3.261-1.354Zm13.112 3.6a.526.526 0 1 1 .373.155.528.528 0 0 1-.369-.154Zm-4.811.155a.528.528 0 1 1 0-1.055h2.783a.528.528 0 1 1 0 1.055Zm0-2.532a.528.528 0 1 1 0-1.055h6.441a.528.528 0 1 1 0 1.055Zm0-2.531a.528.528 0 1 1 0-1.055h6.441a.528.528 0 1 1 0 1.055Z"/></svg>